<svg width="240" height="358" fill="none" xmlns="http://www.w3.org/2000/svg">
  <g filter="url(#a)">
    <rect x="10" y="8" width="220" height="338" rx="20" fill="#22232E"/>
  </g>
  <path fill-rule="evenodd" clip-rule="evenodd" d="m151.9 138-31.445-63.894L89.01 138h62.89Zm-21.913-37.336 16.807 34.152H94.115l16.808-34.152h19.064Zm-17.497-3.185h15.93l-7.965-16.184-7.965 16.184Z" fill="#fff"/>
  <rect x="56" y="177" width="129" height="21" rx="5" fill="#52546F"/>
  <rect x="25" y="18" width="190" height="21" rx="5" fill="#52546F"/>
  <path d="M71.704 28.614c-.21-.62-.681-1.035-1.545-1.035-.92 0-1.602.523-1.602 1.262 0 .602.358 1.006 1.159 1.193l.727.17c.44.103.648.313.648.614 0 .375-.398.682-1.023.682-.548 0-.892-.236-1.011-.704l-.636.159c.156.741.766 1.136 1.658 1.136 1.015 0 1.705-.554 1.705-1.307 0-.608-.38-.991-1.159-1.182l-.648-.159c-.517-.128-.75-.301-.75-.636 0-.375.398-.648.932-.648.585 0 .827.324.943.625l.602-.17ZM72.794 32h.67v-4.364h-.67V32Zm.34-5.09a.468.468 0 0 0 .478-.456.468.468 0 0 0-.478-.454.468.468 0 0 0-.477.454c0 .25.216.455.477.455Zm3.387 5.18c.887 0 1.534-.442 1.739-1.101l-.648-.182c-.17.454-.565.682-1.09.682-.788 0-1.33-.509-1.362-1.444h3.168v-.284c0-1.625-.966-2.181-1.875-2.181-1.182 0-1.966.931-1.966 2.272 0 1.341.773 2.239 2.034 2.239Zm-1.36-2.624c.045-.68.525-1.284 1.292-1.284.727 0 1.193.545 1.193 1.284H75.16ZM79.347 32h.67v-2.761c0-.591.466-1.023 1.103-1.023.179 0 .363.034.409.045v-.681a6.53 6.53 0 0 0-.352-.012c-.523 0-.978.296-1.137.727h-.045v-.659h-.648V32Zm2.977 0h.67v-2.761c0-.591.466-1.023 1.102-1.023.18 0 .364.034.41.045v-.681a6.53 6.53 0 0 0-.353-.012c-.523 0-.977.296-1.136.727h-.046v-.659h-.647V32Zm4.26.102c.762 0 1.16-.409 1.296-.693h.034V32h.67v-2.875c0-1.386-1.057-1.546-1.613-1.546-.66 0-1.41.228-1.75 1.023l.636.227c.148-.318.497-.659 1.136-.659.617 0 .92.327.92.887v.023c0 .323-.329.295-1.124.397-.81.105-1.693.284-1.693 1.284 0 .853.659 1.341 1.488 1.341Zm.103-.602c-.535 0-.921-.239-.921-.704 0-.512.466-.671.989-.74.284-.033 1.045-.113 1.159-.25v.614c0 .546-.432 1.08-1.228 1.08Zm3.791-2.125c0-.761.472-1.193 1.114-1.193.622 0 1 .406 1 1.09V32h.67v-2.773c0-1.113-.593-1.648-1.477-1.648-.659 0-1.068.296-1.273.74h-.056v-.683h-.648V32h.67v-2.625Zm5.84 2.716c.885 0 1.533-.443 1.738-1.102l-.648-.182c-.17.454-.565.682-1.09.682-.788 0-1.33-.509-1.362-1.444h3.168v-.284c0-1.625-.966-2.181-1.875-2.181-1.182 0-1.966.931-1.966 2.272 0 1.341.773 2.239 2.034 2.239Zm-1.362-2.625c.046-.68.526-1.284 1.293-1.284.727 0 1.193.545 1.193 1.284h-2.486Zm7.623-1.83h-.727l-1.205 3.478h-.045l-1.205-3.478h-.727L100.285 32h.682l1.613-4.364Zm2.036 4.466c.762 0 1.16-.409 1.296-.693h.034V32h.67v-2.875c0-1.386-1.056-1.546-1.613-1.546-.659 0-1.409.228-1.75 1.023l.636.227c.148-.318.497-.659 1.137-.659.616 0 .92.327.92.887v.023c0 .323-.33.295-1.125.397-.81.105-1.693.284-1.693 1.284 0 .853.659 1.341 1.488 1.341Zm.103-.602c-.534 0-.921-.239-.921-.704 0-.512.466-.671.989-.74.284-.033 1.045-.113 1.159-.25v.614c0 .546-.432 1.08-1.227 1.08Zm4.769.59c.841 0 1.125-.522 1.273-.76h.079V32h.648v-5.818h-.671v2.148h-.056c-.148-.228-.409-.75-1.262-.75-1.102 0-1.863.875-1.863 2.25 0 1.386.761 2.26 1.852 2.26Zm.091-.601c-.841 0-1.273-.739-1.273-1.67 0-.921.421-1.637 1.273-1.637.818 0 1.25.659 1.25 1.636 0 .989-.443 1.67-1.25 1.67Zm4.514.613c.761 0 1.159-.409 1.295-.693h.035V32h.67v-2.875c0-1.386-1.057-1.546-1.614-1.546-.659 0-1.409.228-1.75 1.023l.637.227c.147-.318.497-.659 1.136-.659.617 0 .921.327.921.887v.023c0 .323-.33.295-1.125.397-.81.105-1.694.284-1.694 1.284 0 .853.659 1.341 1.489 1.341Zm.102-.602c-.534 0-.92-.239-.92-.704 0-.512.466-.671.988-.74.285-.033 1.046-.113 1.16-.25v.614c0 .546-.432 1.08-1.228 1.08Zm3.61.545c.282 0 .512-.23.512-.51a.513.513 0 0 0-1.023 0c0 .28.23.51.511.51Zm3.544.046c.887 0 1.535-.443 1.739-1.102l-.648-.182c-.17.454-.565.682-1.091.682-.787 0-1.329-.509-1.36-1.444h3.167v-.284c0-1.625-.966-2.181-1.875-2.181-1.182 0-1.966.931-1.966 2.272 0 1.341.773 2.239 2.034 2.239Zm-1.36-2.625c.045-.68.525-1.284 1.292-1.284.728 0 1.193.545 1.193 1.284h-2.485Zm5.835 2.625c.841 0 1.125-.523 1.273-.762h.079V32h.648v-5.818h-.671v2.148h-.056c-.148-.228-.409-.75-1.262-.75-1.102 0-1.863.875-1.863 2.25 0 1.386.761 2.26 1.852 2.26Zm.091-.602c-.841 0-1.273-.739-1.273-1.67 0-.921.42-1.637 1.273-1.637.818 0 1.25.659 1.25 1.636 0 .989-.443 1.67-1.25 1.67Zm5.98-1.273c0 .818-.625 1.193-1.125 1.193-.557 0-.955-.409-.955-1.045v-2.728h-.67v2.773c0 1.114.591 1.648 1.409 1.648.659 0 1.091-.353 1.295-.796h.046V32h.67v-4.364h-.67v2.58Zm2.387 1.83a.513.513 0 0 0 0-1.023.513.513 0 0 0-.511.511c0 .281.23.511.511.511Zm3.487.045c.966 0 1.602-.591 1.716-1.364h-.67c-.125.477-.523.762-1.046.762-.795 0-1.307-.66-1.307-1.67 0-.99.523-1.637 1.307-1.637.591 0 .943.364 1.046.761h.67c-.114-.818-.807-1.364-1.727-1.364-1.182 0-1.966.932-1.966 2.262 0 1.307.75 2.25 1.977 2.25Zm4.469 0c1.182 0 1.977-.898 1.977-2.25 0-1.364-.795-2.262-1.977-2.262s-1.977.898-1.977 2.262c0 1.352.795 2.25 1.977 2.25Zm0-.602c-.898 0-1.307-.773-1.307-1.648 0-.875.409-1.66 1.307-1.66.898 0 1.307.785 1.307 1.66 0 .875-.409 1.648-1.307 1.648Zm3.001.511h.67v-2.727c0-.64.466-1.091.989-1.091.508 0 .863.332.863.83V32h.682v-2.84c0-.563.352-.978.966-.978.477 0 .886.253.886.898V32h.671v-2.92c0-1.026-.551-1.5-1.33-1.5-.625 0-1.082.287-1.306.738h-.046c-.216-.466-.596-.739-1.17-.739-.569 0-.989.273-1.171.74h-.057v-.683h-.647V32Zm9.01-6.09h-.614l-1.875 6.965h.614l1.875-6.966Zm1.465.272h-.671V32h.671v-5.818Zm3 5.909c1.182 0 1.978-.898 1.978-2.25 0-1.364-.796-2.262-1.978-2.262-1.181 0-1.977.898-1.977 2.262 0 1.352.796 2.25 1.977 2.25Zm0-.602c-.897 0-1.306-.773-1.306-1.648 0-.875.409-1.66 1.306-1.66.898 0 1.307.785 1.307 1.66 0 .875-.409 1.648-1.307 1.648Zm4.763 2.238c1.045 0 1.886-.477 1.886-1.602v-4.489h-.648v.694h-.068c-.148-.228-.42-.75-1.273-.75-1.102 0-1.863.875-1.863 2.216 0 1.363.795 2.136 1.852 2.136.852 0 1.125-.5 1.273-.739h.056v.887c0 .727-.511 1.056-1.215 1.056-.793 0-1.071-.417-1.25-.659l-.535.375c.273.458.81.875 1.785.875Zm-.023-2.397c-.841 0-1.273-.637-1.273-1.546 0-.886.421-1.602 1.273-1.602.818 0 1.25.659 1.25 1.602 0 .966-.443 1.546-1.25 1.546Zm3.136.67h.671v-4.364h-.671V32Zm.341-5.09a.468.468 0 0 0 .477-.456.468.468 0 0 0-.477-.454.468.468 0 0 0-.477.454c0 .25.216.455.477.455Zm2.228 2.465c0-.761.472-1.193 1.114-1.193.622 0 1 .406 1 1.09V32h.67v-2.773c0-1.113-.594-1.648-1.477-1.648-.659 0-1.068.296-1.273.74h-.057v-.683h-.647V32h.67v-2.625Z" fill="#fff"/>
  <rect x="56" y="208" width="129" height="21" rx="5" fill="#52546F"/>
  <rect x="56" y="239" width="129" height="21" rx="5" fill="#75E6A9"/>
  <rect x="84" y="335" width="72" height="4" rx="2" fill="#fff"/>
  <defs>
    <filter id="a" x="0" y="0" width="240" height="358" filterUnits="userSpaceOnUse" color-interpolation-filters="sRGB">
      <feFlood flood-opacity="0" result="BackgroundImageFix"/>
      <feColorMatrix in="SourceAlpha" values="0 0 0 0 0 0 0 0 0 0 0 0 0 0 0 0 0 0 127 0" result="hardAlpha"/>
      <feOffset dy="2"/>
      <feGaussianBlur stdDeviation="5"/>
      <feComposite in2="hardAlpha" operator="out"/>
      <feColorMatrix values="0 0 0 0 0 0 0 0 0 0 0 0 0 0 0 0 0 0 0.1 0"/>
      <feBlend in2="BackgroundImageFix" result="effect1_dropShadow_26_274"/>
      <feBlend in="SourceGraphic" in2="effect1_dropShadow_26_274" result="shape"/>
    </filter>
  </defs>
</svg>