<svg width="464" height="444" viewBox="0 0 464 444" fill="none" xmlns="http://www.w3.org/2000/svg">
<path fill-rule="evenodd" clip-rule="evenodd" d="M73.1709 319.72C40.6959 279.674 -5.36258 233.916 1.18017 186.331C7.84331 137.869 65.8077 130.022 102.616 105.565C128.497 88.3687 156.338 79.1016 183.965 64.8798C225.556 43.4701 255.948 -8.04208 305.18 1.28988C355.981 10.919 399.809 61.3689 428.647 111.259C457.363 160.936 467.688 219.102 461.793 272.224C456.256 322.113 429.789 362.199 397.263 394.04C367.456 423.219 329.623 443.171 286.669 443.657C246.95 444.105 209.286 418.414 171.688 396.588C135.526 375.596 100.702 353.669 73.1709 319.72Z" fill="#54C494"/>
</svg>
