<svg width="322" height="247" fill="none" xmlns="http://www.w3.org/2000/svg">
  <path fill-rule="evenodd" clip-rule="evenodd" d="M72.089 175.934c-20.501-21.958-49.614-47.084-45.295-72.998 4.398-26.39 41.26-30.439 64.733-43.625 16.505-9.272 34.229-14.214 51.833-21.857 26.502-11.506 45.99-39.466 77.244-34.185 32.249 5.45 59.929 33.125 78.086 60.435 18.079 27.193 24.443 58.942 20.516 87.876-3.687 27.174-20.642 48.921-41.419 66.149-19.041 15.788-43.15 26.515-70.448 26.61-25.241.087-49.088-14.067-72.907-26.113-22.908-11.586-44.963-23.677-62.343-42.292Z" fill="#54C494"/>
  <path fill-rule="evenodd" clip-rule="evenodd" d="M253.404 34.246c5.315-.41 11.044-.145 15.375 2.963 4.331 3.108 6.298 9.932 2.742 13.902 4.021-1.571 8.746 1.095 10.76 4.913 2.014 3.819 1.909 8.394 1.303 12.668A61.94 61.94 0 0 1 271.2 97.887l-.905 2.668c7.763 2.002 38.078 13.775 29.887 42.798-8.191 29.023-43.962 40.069-47.624 43.543-6.382 6.054-16.123 6.468-24.916 6.189a341.497 341.497 0 0 1-64.271-8.193c-1.794-.404-4.066-.651-5.1.87-7.485 11.004-23.136 11.988-36.41 11.03a323.347 323.347 0 0 1-50.645-7.725c-9.44-2.218-19.464-5.305-25.344-13.015-6.856-8.988-6.064-21.45-4.952-32.699-4.506 2.505-11.98 3.862-22.42 4.07-6.148-1.254-9.982-3.482-11.504-6.685-6.959-14.647-9.345-33.521-.68-47.958 1.041-1.734 2.243-3.443 3.938-4.547 1.797-1.17 3.988-1.554 6.124-1.743 8.425-.747 17.07 1.22 24.342 5.538l-.194-70.917c-.004-1.354.015-2.79.736-3.936 1.044-1.656 3.182-2.17 5.107-2.529A440.244 440.244 0 0 1 99.36 8.05c5.808-.367 13.757 1.25 13.783 7.069l.304 66.86c.024 5.304.365 4.86 2.85 3.324-1.562.161-1.214-2.488-.03-3.52 4.42-3.853 10.861-3.995 16.723-3.935l39.343.403c12.707.13 27.945 1.741 33.698 13.072-.167-3.368 2.885-6.546 6.256-6.515 3.677.034 6.752-3.155 7.825-6.672 1.074-3.517.6-7.296.117-10.94-5.928-5.741-7.48-15.5-3.625-22.796 3.855-7.297 12.791-11.514 20.874-9.852 5.221 1.073 10.611.11 15.926-.3ZM101.231 143.568c-.174 4.692-.359 9.447-1.74 13.935l1.74-13.935Zm-5.433-57.586c1.22.357 2.73 1.44 2.09 2.538 5.302.53 3.719.285 3.958-5.964.242-6.34.262-13.35-3.889-18.15-3.673-4.246-9.663-5.574-15.257-6.052a78.284 78.284 0 0 0-19.592.795c-3.153.53-6.57 1.442-8.4 4.064-1.023 1.467-1.4 3.28-1.701 5.044a90.535 90.535 0 0 0-1.099 21.04c13.594-6.324 29.5-7.526 43.89-3.315Zm117.977 46.584c.332-.335.836-.417 1.304-.481l5.604-.771c-4.287-1.937-6.885-6.536-7.662-11.176-.776-4.64-.018-9.384.748-14.026-2.743 3.052-2.545 7.657-2.186 11.744.786 8.947 1.86 15.046 2.192 14.71Zm-35.272 44.065c.367-1.195 1.618-1.837 2.534-2.688 1.648-1.532 2.261-3.848 2.798-6.033 1.859-7.552 3.728-15.196 3.705-22.973-.005-1.647-.089-3.34.457-4.895.545-1.555 1.912-2.96 3.56-2.968 1.737-.009 2.152-2.419 1.997-4.149l-1.607-17.9c-.171-1.905-.345-3.829-.924-5.653-2.138-6.743-10.377-10.82-17.035-8.429-.815.293-1.033 1.322-1.125 2.183l-3.074 28.631c-.182 1.696 2.007 2.778 3.66 2.358 1.653-.42 2.915-1.712 4.344-2.642 1.429-.93 3.444-1.466 4.756-.377 1.483 1.231 3.679-.136 4.967-1.57 1.289-1.434 2.966-3.162 4.799-2.564l-6.448 6.168c-.713.682-1.342 2.044-.441 2.447a15.108 15.108 0 0 0 6.404-4.404c.787-.025.824 1.211.385 1.865-1.654 2.462-5.549 3.011-6.552 5.803-2.341 6.518-9.64 10.847-16.482 9.775-1.404-.22-2.103 1.626-2.272 3.037l-2.021 16.871c-.155 1.294-.299 2.663.233 3.852.889 1.984 3.267 2.735 5.374 3.269 2.786.705 5.604 1.415 8.451 1.723 1.199.13 1.194-.31-.443-.737ZM67.517 166.32c3.98 1.333 8.193 1.785 12.368 2.228 1.77.188 3.655.357 5.243-.447 1.87-.947 2.866-2.999 3.67-4.935a99.643 99.643 0 0 0 7.523-34.055c.068-1.659-2.056-2.391-3.713-2.503-13.226-.887-25.876 4.927-37.854 10.605-.574.272-1.189.582-1.472 1.151-.212.424-.201.92-.185 1.393.214 6.451.485 13.132 3.37 18.906.779 1.559 1.77 3.06 3.173 4.094.85.626 1.823 1.061 2.787 1.49 1.674.746 3.352 1.491 5.09 2.073Zm85.563-23.873a263.677 263.677 0 0 0 3.72-28.677c.245-3.29.424-6.635-.288-9.856-.711-3.222-2.427-6.353-5.232-8.09-1.729-1.07-3.752-1.55-5.753-1.907a57.333 57.333 0 0 0-11.077-.881c-3.273.058-6.709.457-9.381 2.348-.883.626-1.686 1.444-2.009 2.478-.323 1.033-.051 2.303.846 2.91 2.265 1.534 3.189 4.404 3.613 7.107.425 2.703.527 5.534 1.758 7.977.636 1.26 1.546 2.359 2.502 3.398a42.049 42.049 0 0 0 19.291 11.896c1.293.369 2.938 1.168 2.665 2.485 4.069 2.566-.723 9.176-.655 8.812Zm-11.213 27.965c1.498-.911 2.514-2.425 3.408-3.933a55.621 55.621 0 0 0 7.267-20.936c-13.647-.062-27.212-5.211-37.463-14.22-.35 1.408-.283 2.882-.235 4.332a147.675 147.675 0 0 1-1.603 27.091c-.325 2.135.95 4.27 2.703 5.53 1.754 1.261 3.913 1.803 6.034 2.211a64.606 64.606 0 0 0 14.53 1.123c1.85-.066 3.777-.237 5.359-1.198Zm86.114-78.098c-.796-1.917-1.392-4.078-3.043-5.336-1.65-1.26-4.757-.643-4.854 1.43 1.633-.3 2.881 1.715 2.603 3.353-.278 1.637-1.468 2.939-2.414 4.304-1.307 1.886-2.201 4.021-3.085 6.139a32.981 32.981 0 0 0-2.357 16.037c.332 3.197 1.208 6.481 3.37 8.86 2.162 2.378 5.867 3.568 8.716 2.079 2.446-1.279 3.667-4.098 4.228-6.801.561-2.703.661-5.533 1.721-8.082 1.956-4.702 6.778-7.543 11.549-9.327-7.172-.974-13.66-5.971-16.434-12.656Zm-19.831 5.087c.319 1.233.76 2.434 1.316 3.58a19.866 19.866 0 0 1 1.59-4.67 18.382 18.382 0 0 0-2.198-.119c-.178.002-.366.008-.517.104-.339.215-.292.717-.191 1.105Zm-86.441-1.269c-.452.364-.717 1.146-.24 1.476l2.19-2.193a1.026 1.026 0 0 0-.606-.361c-.29.502-.893.715-1.344 1.078Z" fill="#fff"/>
  <path d="M248.125 90.896a2.823 2.823 0 1 0-.001-5.647 2.823 2.823 0 0 0 .001 5.647ZM231.952 88.072a1.54 1.54 0 1 0 0-3.08 1.54 1.54 0 0 0 0 3.08Z" fill="#FFB61D"/>
  <path fill-rule="evenodd" clip-rule="evenodd" d="m86.106 47.552 13.862.088c.216.001.448.008.623.136.356.261.214.874-.153 1.12-.367.248-.843.237-1.285.222a70.658 70.658 0 0 0-12.174.63c-.613.085-1.26.175-1.833-.058-.573-.233-1.012-.92-.748-1.48.276-.584 1.061-.662 1.708-.658Zm-15.452-.454c.293.292.153.828-.173 1.083-.325.255-.76.306-1.172.348L57.02 49.773c-.484.05-.985.097-1.449-.052-.463-.15-.883-.55-.894-1.037-.011-.502.416-.929.892-1.089.476-.16.993-.115 1.494-.076 4.197.33 8.435.14 12.586-.566.347-.059.755-.104 1.005.145Zm-.574-7.863c.306.247.198.777-.11 1.022-.307.246-.725.287-1.117.318l-13.155 1.038c-.493.038-1.003.075-1.467-.093-.465-.168-.872-.6-.846-1.094.027-.5.489-.888.975-1.006.487-.117.996-.03 1.49.044 4.466.66 9.006.058 13.5-.35.253-.024.533-.038.73.121Zm18.373-2.606c2.745.35 5.528.404 8.284.159 1.096-.098 2.42-.144 3.043.763-.739.598-1.754.682-2.703.742l-9.43.595c-.717.045-1.61-.01-1.906-.664-.265-.588.202-1.295.801-1.533.6-.238 1.272-.144 1.911-.062Zm-23.714-3.36c.003.474-.591.679-1.061.748l-6.908 1.012c-.494.072-1.003.144-1.485.015-.481-.128-.931-.511-.976-1.008-.055-.607.515-1.12 1.11-1.252.596-.133 1.213.006 1.818.084 2.087.268 4.192-.19 6.295-.262.514-.018 1.204.147 1.207.662Zm33.334-1.654c.534.06 1.083.378 1.226.897-.95.718-2.204.848-3.39.953l-6.088.54-2.144.19c-.523.046-1.067.09-1.558-.096-.49-.185-.91-.672-.837-1.192.115-.819 1.19-1.031 2.017-1.013 3.067.066 6.173.528 9.179-.09.527-.107 1.06-.25 1.595-.19Zm2.694-7.747c-15.036 2.028-30.452.978-45.281 4.186-.88.19-2.107.2-2.335-.671.02-1.026 1.347-1.397 2.37-1.47L98.8 22.827c.846-.06 2.034.195 1.967 1.041Z" fill="#E7EAEE"/>
  <path fill-rule="evenodd" clip-rule="evenodd" d="M47.875 179.73c.157 1.819-2.35 2.435-4.176 2.443a79.428 79.428 0 0 0-27.84 5.169c-1.354.514-2.802 1.162-3.461 2.452-.873 1.708.08 3.893 1.623 5.031s3.514 1.485 5.406 1.793a820.416 820.416 0 0 0 148.965 10.477l.801-.017c5.748-.133 11.614-.442 16.879-2.718l-13.077-9.165c7.546-1.508 15.332-.434 22.989.322a274.272 274.272 0 0 0 52.753.105c-1.234 1.973-3.948 2.246-6.274 2.296a580.642 580.642 0 0 1-66.102-2.345l8.597 5.658c1.039.683 2.188 1.551 2.248 2.793.09 1.866-2.203 2.797-4.046 3.102-6.117 1.01-12.339 1.171-18.539 1.262a845.406 845.406 0 0 1-144.708-10.342c-2.334-.37-4.752-.783-6.697-2.124-1.946-1.34-3.272-3.888-2.455-6.105.814-2.205 3.288-3.24 5.522-3.97a129.795 129.795 0 0 1 31.592-6.117Zm65.268-164.612.304 66.86c.024 5.304 1.069 12.017 6.199 13.367a43.297 43.297 0 0 1 22.836-3.695c4.442.499 9.054 1.841 12.061 5.148 4.124 4.536 4.131 11.367 3.688 17.482a266.072 266.072 0 0 1-5.287 36.873 7.254 7.254 0 0 1 5.641 2.219 8.943 8.943 0 0 1-7.083.113c1.539 8.343-5.258 16.575-13.398 18.965-8.14 2.39-16.973.136-24.628-3.522-.718 2.796 3.022 4.438 5.877 4.86l21.745 3.214a120.673 120.673 0 0 1-26.721-2.18c-1.619 2.292 2.046 4.606 4.816 5.054l22.04 3.567a207.715 207.715 0 0 1-24.824-1.655c5.235 4.722 12.381 7.261 19.422 6.901a18.858 18.858 0 0 1-12.307-.22c4.907 6.573 14.948 7.79 22.28 4.114 7.333-3.676 12.12-11.196 14.462-19.057 2.343-7.861 2.57-16.169 2.985-24.361.766-15.121 2.23-30.222 4.879-45.129 1.784-10.039 6.165-22.008 16.262-23.427a1272.447 1272.447 0 0 0-53.999-1.34c-5.472-.02-12.269.875-14.096 6.033-1.562.161-1.214-2.488-.03-3.52 4.42-3.853 10.861-3.995 16.723-3.935l39.343.403c12.707.13 27.945 1.741 33.698 13.072-.167-3.368 2.885-6.546 6.256-6.514 3.677.033 6.752-3.156 7.825-6.673 1.074-3.517.6-7.296.117-10.94-5.928-5.741-7.48-15.5-3.625-22.796 1.09-2.064 2.701-6.985 11.699-10.153 5.998-2.111 11.928-1.879 17.788.697 11.005-2.128 18.568-1.373 22.688 2.266 6.18 5.458 6.298 9.932 2.742 13.902 4.021-1.571 8.746 1.095 10.76 4.913 2.014 3.819 1.909 8.394 1.303 12.668A61.93 61.93 0 0 1 271.2 97.887l-.905 2.668c15.888 4.096 28.741 18.14 31.418 34.328-5.283-11.906-12.434-24.516-24.754-28.743-2.78 2.916-5.639 5.959-6.944 9.771-1.306 3.811-.601 8.627 2.71 10.923l-6.238 1.446 2.077 3.683c-7.857 5.973-8.761 17.271-8.714 27.14.048 9.87-.132 21-7.292 27.793-6.382 6.054-16.123 6.468-24.916 6.189a341.497 341.497 0 0 1-64.271-8.193c-1.794-.404-4.066-.651-5.1.87-7.484 11.004-23.136 11.988-36.41 11.03a323.35 323.35 0 0 1-50.645-7.725c-9.44-2.218-19.464-5.305-25.344-13.015-6.856-8.988-6.064-21.45-4.952-32.699-6.759 3.758-14.772 5.212-22.42 4.07 8.062-5.271 11.972-15.355 12.045-24.987.074-9.632-3.141-18.969-6.718-27.913-7.882 4.572-12.029 14.207-11.412 23.298.617 9.09 5.44 17.527 11.91 23.941-7.976-5.034-13.255-14.104-13.692-23.527-.436-9.422 3.98-18.941 11.457-24.692-1.195-4.086-7.359-4.586-10.59-1.813C8.27 94.502 7.257 99 6.426 103.177c-1.536 7.714-3.078 15.609-1.962 23.395 1.116 7.787 5.417 15.581 12.624 18.731-3.368 2.428-7.854-1.067-10.091-4.565-9.071-14.185-9.345-33.521-.68-47.958 1.041-1.734 2.243-3.443 3.938-4.547 1.797-1.17 3.988-1.554 6.124-1.743 8.425-.747 17.07 1.22 24.342 5.538l-.194-70.917c-.004-1.354.015-2.79.736-3.936 1.044-1.656 3.183-2.17 5.107-2.529A440.243 440.243 0 0 1 99.36 8.05c5.808-.367 13.757 1.25 13.783 7.069Zm-11.872-5.644a370.608 370.608 0 0 0-56.115 6.962c-.787.159-1.62.345-2.192.909-.78.767-.84 1.983-.85 3.077-.22 23.538-.128 47.079.28 70.614l6.789-1.692c-.885-4.83-1.773-9.724-1.395-14.62.378-4.895 2.175-9.873 5.87-13.107 3.998-3.499 9.58-4.488 14.88-4.86a88.892 88.892 0 0 1 15.309.248c5.189.533 10.655 1.685 14.399 5.318 5.407 5.247 5.495 13.748 5.215 21.278l-2.23 59.967c-.174 4.692-.359 9.447-1.74 13.935-1.38 4.488-4.121 8.753-8.268 10.955-4.07 2.161-8.939 2.1-13.517 1.58a78.248 78.248 0 0 1-12.925-2.587c-2.566-.744-5.134-1.639-7.315-3.183-7.218-5.108-8.072-15.3-8.247-24.14-2.771-.5-5.48 1.609-6.625 4.182-1.144 2.573-1.093 5.497-1.022 8.313.177 7.022.45 14.396 4.036 20.437 5.531 9.321 17.15 12.765 27.757 14.99a396.222 396.222 0 0 0 57.147 7.702c-8.569-4.364-16.167-11.835-17.975-21.281-.491-2.566-.544-5.192-.595-7.804l-3.001-153.22c-.064-3.23-4.443-4.125-7.67-3.973Zm73.057 83.852c-.477 1.163-.823 2.453-.506 3.668.318 1.216 1.499 2.278 2.739 2.071 5.551-.924 11.535 1.81 14.47 6.612 2.421 3.962 2.757 8.81 3.03 13.446l2.483 42.225c.265 4.513.396 9.478-2.408 13.023-3.639 4.599-10.471 4.753-16.308 4.182-4.816-.472-9.883-1.272-13.622-4.344a7.718 7.718 0 0 1-1.443 5.066c-1.302 1.79.8 4.144 2.844 4.99 2.498 1.033 5.214 1.393 7.894 1.741 12.276 1.594 24.56 3.13 36.851 4.61 9.46 1.139 19.071 2.242 28.477.713a61.111 61.111 0 0 1-16.821-7.624c-2.584-1.683-5.081-3.606-6.843-6.136-2.876-4.13-3.482-9.379-3.961-14.389a920.605 920.605 0 0 1-3.176-44.781c-.511-11.026-4.047-21.898-10.12-31.116-1.086-1.648-2.414-3.359-4.334-3.817-7.633-1.825-16.268 2.6-19.246 9.86Zm-34.999 95.422c.647.11 1.312.255 1.846.638.533.383.906 1.062.741 1.698-.164.636-1.003 1.055-1.534.667-.585-.428-1.363-.443-2.06-.64-.697-.197-1.428-.776-1.303-1.49.159-.905 1.404-1.027 2.31-.873Zm-26.881.269c.803.167 1.744.739 1.579 1.543-.145.709-1.022.945-1.739 1.041-.804.107-1.662.207-2.392-.147-.73-.353-1.203-1.35-.724-2.005.322-.441.927-.558 1.473-.581a7.425 7.425 0 0 1 1.803.149Zm48.059-8.934c-.762.55-1.286 1.36-1.824 2.131a34.894 34.894 0 0 1-9.117 8.959c.089.377.654.282.989.087 4.118-2.386 7.056-6.327 9.877-10.16.23-.314.421-.839.075-1.017Zm36.82-94.927c2.197 2.594 4.411 5.213 6.018 8.209 1.743 3.247 2.722 6.846 3.51 10.446 4.408 20.14 3.232 41.078 6.089 61.496.515 3.684 1.197 7.447 3.114 10.635 2.246 3.735 5.973 6.324 9.769 8.463 3.071 1.731 6.277 3.25 9.649 4.275 5.363 1.63 11.806 1.744 15.917-2.066 2.308-2.14 3.523-5.193 4.471-8.194 4.066-12.864 4.513-26.85 1.277-39.948.081 7.834 1.099 15.648.866 23.479-.233 7.83-1.84 15.893-6.443 22.232-.912 1.255-1.969 2.46-3.347 3.174-1.814.94-3.97.922-5.999.674a30.106 30.106 0 0 1-10.178-3.145c-2.408-1.247-4.635-2.814-6.794-4.455-2.509-1.908-4.972-3.963-6.73-6.58-1.742-2.593-2.713-5.622-3.483-8.649-5.625-22.106-1.603-45.952-8.277-67.763-1.573-5.141-4.305-10.657-9.429-12.283ZM63.149 182.407l38.952 6.012c-.329.859-1.516.889-2.428.767l-33.312-4.45-3.766-.503c-.596-.079-1.335-.295-1.41-.892-.107-.84 1.127-1.063 1.964-.934Zm150.62-76.295c-2.743 3.052-2.545 7.657-2.186 11.744l2.359 26.839c.037.418.081.859.327 1.2.401.558 1.178.655 1.864.703l28.004 1.974c-.698 1.103-2.271 1.12-3.573 1.019a253.763 253.763 0 0 0-26.423-.658 37.96 37.96 0 0 0 1.956 13.348c.625 1.857 3.031 2.253 4.989 2.332l22.4.907c.344.774-.863 1.257-1.709 1.247l-23.025-.265c-1.051-.012-1.431 1.478-1.035 2.451 1.035 2.545 4.331 3.093 7.074 3.265l17.159 1.075c.392.024.473.64.187.909-.286.268-.722.276-1.114.267l-20.091-.426c5.195 6.183 12.481 10.576 20.373 12.284 1.701.368 3.504.61 5.156.065 1.977-.653 3.435-2.332 4.576-4.073 6.053-9.235 5.651-21.118 5.032-32.143l-.701-12.496a.903.903 0 0 1 1.116-.258c.142-.613-.655-.977-1.273-1.09-13.656-2.509-27.669-5.021-41.335-2.571-.437-.179-.433-.859-.101-1.195.332-.335.836-.417 1.304-.481l5.604-.771c-4.287-1.937-6.885-6.536-7.662-11.176-.776-4.64-.018-9.384.748-14.026Zm-67.117 75.967c1.217.226 2.621.598 3.096 1.74-1.354.923-3.133.829-4.766.698-.45-.036-.941-.09-1.257-.412-.558-.57-.141-1.619.577-1.965.719-.346 1.566-.207 2.35-.061Zm-92.635-8.348a191.346 191.346 0 0 0 43.107 8.264c1.134.085 2.659.625 2.441 1.741a432.357 432.357 0 0 1-46.02-7.739c-.97-.217-2.213-.908-1.852-1.833.317-.813 1.491-.694 2.324-.433Zm51.237 6.784c.714-.001 1.404.243 2.071.498.34.129.714.295.845.634.281.722-.714 1.238-1.476 1.376l-1.539.279c-.432.078-.898.153-1.296-.033-.647-.303-.815-1.237-.444-1.847.371-.611 1.125-.905 1.839-.907Zm65.872-1.542c6.188 1.177 12.526 1.244 18.824 1.307.488.005.619.772.271 1.113-.348.341-.892.356-1.379.346-5.88-.115-11.767-.735-17.629-.273-.638.051-1.301.11-1.9-.114-.6-.225-1.111-.83-.997-1.46.098-.543.627-.924 1.169-1.029.542-.105 1.099.007 1.641.11Zm13.979-97.002c-7.006 1.046-12.892 7.282-13.533 14.337-.598 6.588-2.417 12.996-3.711 19.484-4.157 20.835-2.896 42.428-6.572 63.353 1.343-2.445 1.705-5.29 2.043-8.058l8.913-72.991c.237-1.943.479-3.907 1.177-5.735 1.907-4.996 6.835-8.134 11.683-10.39Zm-31.855 94.535c.382.121.773.281 1.027.59.255.309.318.809.04 1.097-.209.217-.538.256-.839.283l-2.954.261c-.532.047-1.081.092-1.588-.076-.506-.168-.963-.607-.978-1.14-.024-.904 1.09-1.358 1.992-1.417a9.018 9.018 0 0 1 3.3.402Zm20.738-75.563c-.815.293-1.033 1.322-1.125 2.183l-3.074 28.631c-.182 1.696 2.007 2.778 3.66 2.358 1.653-.42 2.915-1.712 4.344-2.642 1.429-.93 3.444-1.466 4.756-.377 1.483 1.231 3.679-.136 4.967-1.57 1.289-1.434 2.966-3.162 4.799-2.564l-6.448 6.168c-.713.682-1.342 2.044-.441 2.447a15.108 15.108 0 0 0 6.404-4.404c.787-.025.824 1.211.385 1.865-1.654 2.463-5.549 3.011-6.552 5.803-2.341 6.518-9.64 10.847-16.482 9.775-1.404-.22-2.103 1.626-2.272 3.037l-2.021 16.871c-.155 1.294-.299 2.663.233 3.852.889 1.984 3.267 2.735 5.374 3.269 3.959 1.003 7.983 2.013 12.064 1.869 4.081-.145 8.301-1.604 10.886-4.766-.716-.929-2.31.262-3.352-.275-1.02-.527-.478-2.278.616-2.622 1.095-.345 2.251.203 3.267.735.639-1.246 1.296-2.58 1.164-3.974-.131-1.394-1.411-2.773-2.775-2.459-.897.206-1.263-1.349-.54-1.918.724-.569 1.762-.385 2.658-.172l.149-10.093c.01-.687.012-1.408-.314-2.013-.325-.604-1.097-1.028-1.715-.729-.844.406-1.575-1.03-1.01-1.777.564-.746 1.629-.843 2.564-.876a50.52 50.52 0 0 0-.576-8.936c-3.522 1.764-4.138 6.421-4.493 10.344A124.08 124.08 0 0 1 185 170.241c-.456 1.63-.97 3.297-2.036 4.611-1.067 1.314-2.824 2.206-4.461 1.779.367-1.195 1.618-1.837 2.534-2.688 1.648-1.532 2.261-3.848 2.798-6.033 1.859-7.552 3.728-15.196 3.705-22.973l-.003-.521c-.013-1.481-.028-2.983.46-4.374.545-1.555 1.912-2.96 3.56-2.968 1.737-.009 2.152-2.419 1.997-4.149l-1.607-17.9c-.171-1.905-.345-3.829-.924-5.653-2.138-6.743-10.377-10.82-17.035-8.429Zm26.216 72.768c.816.219 1.609 1.059 1.27 1.833-.324.74-1.342.781-2.146.704-.393-.037-.812-.084-1.119-.332-.539-.436-.463-1.359.042-1.834.504-.474 1.284-.551 1.953-.371Zm-98.128-.827c.537.116 1.097.273 1.483.664.386.391.514 1.088.13 1.481-.314.322-.82.328-1.269.312l-1.936-.068c-.373-.013-.773-.035-1.073-.258-.641-.477-.36-1.594.329-1.999.688-.406 1.555-.301 2.336-.132Zm-49.724-5.855c3.613 1.68 7.582 2.413 11.507 3.097a698.558 698.558 0 0 0 23.904 3.739c1.118.155 2.356.375 3.037 1.275-3.094.211-6.186-.304-9.243-.818l-30.243-5.078c-1.056-.177-2.42-.764-2.215-1.816.244-1.246 2.102-.934 3.253-.399Zm62.727-35.706c-.35 1.408-.283 2.882-.235 4.332a147.587 147.587 0 0 1-1.603 27.091c-.325 2.135.95 4.27 2.703 5.53 1.754 1.261 3.913 1.803 6.034 2.211a64.548 64.548 0 0 0 14.53 1.123c1.85-.066 3.777-.237 5.359-1.198 1.498-.911 2.514-2.425 3.408-3.933a55.621 55.621 0 0 0 7.267-20.936c-13.647-.062-27.212-5.211-37.463-14.22Zm35.692 35.897 2.795.923c.311.102.644.221.829.492.311.456.009 1.125-.473 1.396-.482.271-1.067.257-1.62.235-1.005-.04-2.117-.125-2.819-.846-.702-.722-.461-2.278.543-2.343.255-.017.504.064.745.143Zm48.84.135c.555.089 1.139.191 1.566.555.428.364.603 1.085.209 1.485-.158.161-.378.244-.592.319-.825.287-1.741.516-2.556.203-.816-.312-1.372-1.39-.859-2.097.471-.65 1.44-.591 2.232-.465ZM54.754 137.213c-.574.272-1.189.582-1.472 1.151-.212.424-.2.92-.185 1.393.214 6.451.485 13.132 3.37 18.906.779 1.559 1.77 3.06 3.173 4.094.85.626 1.823 1.061 2.788 1.49 1.674.746 3.351 1.491 5.089 2.073 3.98 1.333 8.193 1.785 12.368 2.228 1.77.188 3.655.357 5.243-.447 1.87-.947 2.866-2.999 3.67-4.934a99.656 99.656 0 0 0 7.523-34.056c.068-1.659-2.056-2.391-3.713-2.502-13.226-.888-25.876 4.926-37.854 10.604Zm43.62-8.57c-.338.447-.38 1.044-.414 1.603a106.508 106.508 0 0 1-9.635 38.26c5.294-2.679 9.239-7.882 10.389-13.703.395-2.001.476-4.05.556-6.088l.755-19.283c.013-.339.016-.712-.2-.973-.356-.433-1.11-.262-1.45.184Zm2.194 32.162c.671.036 1.303.316 1.956.478.584.145.761.978.435 1.485-.327.506-.956.726-1.553.81-.623.087-1.293.054-1.829-.275-.535-.33-.883-1.018-.669-1.61.229-.632.988-.925 1.66-.888Zm99.429-1.746c.628.13 1.166.519 1.684.899.28.206.579.437.671.772.117.429-.166.891-.555 1.104-.39.214-.857.229-1.3.194-.63-.051-1.28-.206-1.755-.623-.475-.416-.716-1.146-.42-1.704.301-.566 1.046-.771 1.675-.642Zm-149.43-19.968c-.171.306-.137.682-.097 1.031l.933 8.217c.507 4.459 1.17 9.265 4.287 12.494.52-.247.226-1.028-.101-1.501-2.525-3.643-3.011-8.276-3.42-12.689l-.72-7.762c-.242-.255-.71-.096-.881.21Zm166.204 16.832 25.69.635c1.311.032 2.625.065 3.922.259-.271.937-1.502 1.113-2.477 1.104-8.587-.081-17.202-.613-25.744.28-.73.076-1.518.151-2.152-.219-.633-.371-.917-1.389-.335-1.835.302-.232.716-.233 1.096-.224Zm-23.527-1.682c.189.062.382.127.536.252.511.417.321 1.307-.203 1.709-.523.402-1.229.448-1.889.465-.686.016-1.487-.038-1.879-.602-.491-.709.093-1.758.906-2.046.813-.287 1.71-.046 2.529.222Zm6.261-1.731a5.1 5.1 0 0 1 2.246.809c.512.339.41 1.189-.056 1.588-.466.4-1.131.456-1.745.434-.62-.023-1.267-.117-1.769-.482-.502-.366-.801-1.071-.532-1.631.307-.638 1.152-.794 1.856-.718Zm-86.264-19.542a263.737 263.737 0 0 0-.627 20.197c.002.284.196.689.439.541.516-5.663.769-11.35.759-17.036-.003-1.259-.028-2.565-.571-3.702Zm-9.154 17.242c.734.055 1.382.482 1.981.912.185.132.374.273.477.475.214.418-.042.957-.443 1.202s-.898.264-1.367.242c-1.068-.049-2.41-.63-2.291-1.693.082-.732.908-1.194 1.643-1.138Zm97.197-4.527c.715.293 1.451 1.06 1.082 1.738-.25.46-.86.559-1.383.565a10.018 10.018 0 0 1-1.814-.148c-.842-.147-.971-1.471-.318-2.022.654-.55 1.643-.458 2.433-.133Zm83.327-13.151c.295.493.3 1.101.296 1.675l-.075 12.201c-.003.494-.069 1.092-.518 1.3-.387.179-.864-.073-1.08-.441-.216-.369-.235-.816-.243-1.242-.062-3.631.343-7.349-.686-10.832-.305-1.034-.671-2.327.128-3.052.625-.566 1.745-.333 2.178.391Zm-104.559-.471c-3.083 1.913-6.325 3.88-9.944 4.14-.658.048-.955.834-1.085 1.481a49.672 49.672 0 0 0-.962 8.844c-.003.182-.002.377.103.525.167.235.507.245.796.23 2.823-.148 5.684-.442 8.306-1.499 2.622-1.057 5.007-2.972 6.075-5.589 1.069-2.617.555-5.955-1.627-7.753-.469-.386-1.145-.7-1.662-.379Zm-23.601 11.447 2.972.781c.37.097.781.226.958.565.209.4-.034.915-.411 1.162-.377.247-.847.294-1.295.334-.712.063-1.446.124-2.129-.086s-1.312-.761-1.39-1.472c-.078-.71.604-1.465 1.295-1.284ZM19.055 89.313c3.707 1.501 6.497 4.749 8.228 8.354 1.73 3.606 2.518 7.581 3.205 11.521 1.137 6.522 2.042 13.178 1.213 19.745-.829 6.568-3.574 13.116-8.663 17.349 3.707.198 8.134.051 10.146-3.069.903-1.4 2.847-2.019 4.394-1.4-.972-.841-.238-2.406.483-3.47 2.958-4.358 4.986-9.368 5.712-14.585 1.405-10.115-2.13-20.367-7.374-29.13-3.403-5.686-11.34-8.118-17.344-5.315Zm87.894 52.399c.765.301.587 1.565-.128 1.971-.715.406-1.606.224-2.402.021-.372-.094-.766-.205-1.019-.494-.589-.674.087-1.813.959-2.014.873-.201 1.758.188 2.59.516Zm27.501-48.676c-3.273.058-6.709.457-9.381 2.348-.883.626-1.686 1.444-2.009 2.478-.323 1.033-.051 2.303.846 2.91 2.265 1.534 3.189 4.404 3.613 7.107.425 2.703.527 5.534 1.758 7.977.636 1.26 1.546 2.359 2.502 3.398a42.049 42.049 0 0 0 19.291 11.896c1.293.369 2.939 1.168 2.665 2.485-10.584-2.22-20.236-8.607-26.416-17.482a29.758 29.758 0 0 1-10.448 14.548c9.491 8.077 21.774 12.809 34.23 13.188.564.017 1.203-.004 1.584-.421.249-.273.327-.657.395-1.021a263.677 263.677 0 0 0 3.72-28.677c.245-3.29.424-6.635-.288-9.856-.711-3.222-2.427-6.353-5.232-8.09-1.729-1.07-3.752-1.55-5.753-1.907a57.333 57.333 0 0 0-11.077-.881Zm65.033 46.143c.858 0 1.941.251 2.092 1.096.15.842-.81 1.469-1.658 1.577-.621.08-1.295.004-1.787-.382-.493-.386-.722-1.142-.38-1.666.351-.537 1.092-.626 1.733-.625Zm63.409-16.908c-1.576 6.102-2.495 12.351-3.411 18.586-.046.31-.072.677.162.886a88.686 88.686 0 0 0 6.737-9.613c.2-.331.397-.763.173-1.077l-1.526-2.134c-.377-.527-.767-1.223-.435-1.78.27-.453.874-.549 1.4-.597l4.313-.397c-.046-.268-.209-.498-.367-.718-1.155-1.608-2.415-3.298-4.264-4.003-1.025-.39-2.508-.215-2.782.847ZM63.108 59.149c-3.153.53-6.57 1.442-8.4 4.064-1.023 1.467-1.4 3.28-1.7 5.044a90.536 90.536 0 0 0-1.1 21.04c13.594-6.324 29.5-7.526 43.89-3.315 1.22.357 2.73 1.44 2.09 2.538-10.794-3.992-22.818-4.588-33.954-1.681-3.603.94-7.105 2.234-10.688 3.25a72.034 72.034 0 0 1-16.353 2.654c10.07 13.671 11.373 33.248 3.204 48.133 5.082-.961 9.858-3.097 14.544-5.287 6.997-3.269 13.963-6.717 21.395-8.816 7.432-2.099 15.468-2.786 22.84-.485.862.27 1.338-.975 1.372-1.878l1.598-41.854c.242-6.34.262-13.35-3.889-18.15-3.673-4.246-9.663-5.574-15.257-6.052a78.284 78.284 0 0 0-19.592.795Zm97.393 77.684c.207.134.42.304.468.546.098.49-.499.803-.98.939-.699.198-1.419.397-2.141.321-.723-.076-1.458-.491-1.695-1.178-.238-.686.239-1.587.966-1.601a6.028 6.028 0 0 1 3.382.973Zm102.539-26.337a13.38 13.38 0 0 1-8.742 1.499c.38 1.06 2.046 1.429 2.054 2.555.005.685-.641 1.168-1.008 1.747-.282.445-.405.971-.517 1.486a80.28 80.28 0 0 0-1.813 14.749c-.025.855.187 1.983 1.037 2.076a6.296 6.296 0 0 1 4.426 2.635l2.478-15.596c.192-1.207.354-2.554-.353-3.55-.973-1.371-.127-3.248.726-4.696l1.712-2.905Zm-156.574 22.471c.898.179 1.919.954 1.579 1.804-.209.524-.842.735-1.405.765-.563.03-1.149-.053-1.676.147-.621.235-1.352-.315-1.427-.974-.076-.659.382-1.3.979-1.589.598-.29 1.3-.283 1.95-.153Zm93.006-.803c.566.078 1.163.203 1.575.599.411.396.525 1.149.086 1.515-.145.121-.327.185-.506.246-.777.266-1.609.526-2.406.329-.798-.197-1.491-1.044-1.215-1.817.318-.892 1.528-1.002 2.466-.872Zm51.507-10.688c-.599.145-1.036.645-1.431 1.118l-2.379 2.849c-.465.557.353 1.333 1.076 1.394.723.06 1.567-.11 2.082.402.539.536.316 1.47-.125 2.089s-1.067 1.124-1.334 1.836c-.399 1.064.261 2.397 1.349 2.725.591.178 1.42-.096 1.425-.713.031-3.607.242-7.213.632-10.799.066-.613-.696-1.045-1.295-.901Zm-120.736 1.792c.456.303.751.787 1.055 1.242 2.61 3.909 6.976 6.596 11.642 7.164 1.079.131 2.353.262 2.894 1.205-1.017 1.007-2.673.884-4.067.56a22.982 22.982 0 0 1-12.633-7.965c-.505-.632-.966-1.593-.403-2.174.381-.392 1.056-.335 1.512-.032Zm118.17-17.273c-3.488.858-6.972 2.067-9.8 4.283-2.827 2.216-4.93 5.583-4.908 9.175.028 4.556-2.21 9.071-5.853 11.806l6.134.722c.718.084 1.523.146 2.085-.309.823-.665.612-1.942.405-2.979-.208-1.038-.162-2.408.824-2.79 1.226-.473 2.24 1.226 2.054 2.527-.185 1.3-.94 2.552-.704 3.844 2.905.412 5.819.76 8.739 1.042-.581-.477-.644-1.381-.35-2.073.294-.692.865-1.221 1.419-1.728.591-.54-.261-1.493-1.057-1.578-.796-.086-1.732.105-2.294-.466-.698-.71-.174-1.9.421-2.699 1.156-1.548 2.588-3.415 1.844-5.199-1.813-4.349-1.414-9.556 1.041-13.578ZM114.628 94.112a385.384 385.384 0 0 0 .199 35.733c4.548-2.467 7.871-6.81 9.932-11.556 1.257-2.895 2.099-6.087 1.596-9.203-.375-2.325-1.475-4.471-2.754-6.448-2.27-3.505-5.232-6.67-8.973-8.526Zm105.456-5.704c1.633-.3 2.881 1.715 2.603 3.353-.278 1.637-1.468 2.939-2.414 4.304-1.307 1.886-2.2 4.021-3.085 6.139a32.981 32.981 0 0 0-2.357 16.037c.332 3.197 1.208 6.481 3.37 8.86 2.162 2.378 5.867 3.568 8.716 2.079 2.446-1.279 3.667-4.098 4.228-6.801.561-2.703.661-5.533 1.721-8.082 1.956-4.702 6.778-7.543 11.549-9.327-7.172-.974-13.66-5.971-16.434-12.656-.796-1.916-1.392-4.078-3.043-5.336-1.65-1.259-4.757-.643-4.854 1.43Zm-60.618 38.352c.504.097.999.243 1.475.437.785.319 1.628 1.202 1.123 1.883-.276.372-.806.417-1.269.428-.844.022-1.754.025-2.443-.463-.689-.487-.928-1.666-.233-2.145.382-.263.891-.227 1.347-.14Zm38.019-2.01c.683.058 1.363.153 2.035.284.333.065.692.155.901.422.317.405.118 1.039-.283 1.36-.401.322-.935.412-1.442.491-.776.122-1.604.237-2.319-.086-.716-.323-1.204-1.269-.767-1.921.382-.569 1.193-.607 1.875-.55ZM2.303 121.078c-.578-.006-.778.766-.76 1.344.05 1.661.386 3.313.989 4.862.168.171.363-.186.34-.425l-.569-5.781Zm111.123 4.277c-.361.196-.498.714-.282 1.063l.009.013-.008.008a.577.577 0 0 0-.031.042c-.145.22.058.568.321.55a2.661 2.661 0 0 0-.009-1.676Zm-7.517-2.351c.783.173 1.632.822 1.438 1.6-.129.515-.671.817-1.19.932-.518.115-1.066.108-1.561.3-.63.245-1.388-.263-1.517-.926-.13-.663.276-1.355.862-1.691.586-.336 1.309-.361 1.968-.215Zm4.529-109.664c.046 35.84.869 71.678 2.469 107.482l.169 3.702.025-1.19c.046-2.783.006-5.567-.035-8.351l-1.434-97.87c-.02-1.365-.127-2.92-1.194-3.773ZM161.7 117.763c.439.131.88.331 1.164.69.285.359.367.91.085 1.272-.273.35-.767.416-1.209.455l-1.885.168c-.309.027-.64.05-.908-.105-.216-.125-.36-.353-.425-.595-.198-.726.293-1.514.972-1.837.68-.324 1.485-.264 2.206-.048ZM9.815 89.708c-1.96 1.926-2.98 4.59-3.922 7.171-2.625 7.194-5.12 14.831-3.824 22.379.4.073.591-.472.62-.878a86.999 86.999 0 0 1 4.32-21.415c.89-2.64 1.96-5.32 3.937-7.284-.027-.478-.789-.309-1.13.027Zm241.01 15.738c-.342.085-.563.407-.742.71a16.645 16.645 0 0 0-2.246 9.558c.098 1.368.538 2.944 1.816 3.443l3.117-2.993c.165-.158.334-.322.425-.532.228-.525-.098-1.11-.397-1.598-1.481-2.41-2.593-5.464-1.359-8.009.153-.316-.272-.663-.614-.579Zm21.591-3.088c-.166.086-.294.229-.418.369a230.455 230.455 0 0 0-8.882 10.679c-.595.762-1.217 1.622-1.158 2.587.052.858.655 1.605 1.387 2.057.731.451 1.584.657 2.42.856.224.053.467.105.677.012.194-.086.317-.276.428-.456 1.747-2.815 3.517-5.686 4.342-8.895.176-.684.769-1.162 1.243-1.686a5.893 5.893 0 0 0 1.509-3.786c.011-.47-.045-.966-.316-1.349-.272-.384-.815-.606-1.232-.388Zm-74.704 13.732c.422.105.888.265 1.078.657.334.691-.45 1.411-1.183 1.638-.568.176-1.202.237-1.747-.002-.545-.238-.958-.839-.835-1.421.22-1.033 1.662-1.126 2.687-.872Zm-91.103-1.508c.2.178.385.389.46.646.152.517-.209 1.087-.704 1.299-.495.213-1.074.131-1.573-.073-.525-.214-1.037-.624-1.104-1.187-.076-.645.508-1.238 1.15-1.331.642-.094 1.288.213 1.771.646Zm56.848-5.667c.512.209.566.984.212 1.41-.353.426-.943.567-1.494.614-.552.046-1.122.026-1.638.228-.792.31-1.653-.647-1.464-1.476.188-.829 1.079-1.344 1.928-1.384.85-.04 1.668.287 2.456.608Zm33.376-1.247a5.18 5.18 0 0 1 2.094.556c.282.143.572.34.652.645.166.629-.623 1.061-1.262 1.184a11.24 11.24 0 0 1-1.716.193c-.71.025-1.568-.113-1.851-.765-.22-.507.048-1.128.498-1.449.45-.32 1.033-.391 1.585-.364Zm46.853-46.417c-4.24.684-8.499 1.251-12.77 1.7-3.094.325-6.008 2.08-7.742 4.664-.356.53-.602 1.377-.052 1.702a11.866 11.866 0 0 1 5.973-3.693c.823-.211 1.724-.326 2.5.02.776.345 1.33 1.297.979 2.07-.539 1.189-2.259.856-3.561.777-3.621-.22-6.753 3.924-5.552 7.347.843-3.268 5.509-4.687 8.124-2.553 2.615 2.133 2.295 6.818-.502 8.707-.924.624-2.111 1.06-2.532 2.091-.362.886-.014 1.885.333 2.776l1.633 4.195c1.142 2.932 2.354 5.97 4.665 8.106 1.776 1.643 4.08 2.62 6.431 3.192 8.474 2.066 18.015-1.221 23.418-8.069.433-.548 1.421-.028 1.499.667.077.695-.398 1.32-.868 1.837a23.232 23.232 0 0 1-8.828 6.04c-1.587.61-3.474 1.27-3.962 2.899-.404 1.35.446 2.84 1.667 3.543 1.221.702 2.709.761 4.109.608a15.383 15.383 0 0 0 7.713-3.12c.673-.522 1.324-1.132 1.623-1.929.283-.755.219-1.59.15-2.394l-.059-.69c-.262-2.996-.602-6.026-1.823-8.765-.587-1.318-1.373-2.552-1.806-3.929-.533-1.697-.501-3.518-.859-5.26-.359-1.744-1.266-3.554-2.925-4.196.438-1.113 1.531-1.814 2.239-2.779.708-.964.812-2.65-.302-3.085-.533-.209-1.14-.03-1.648.235-2.141 1.111-3.295 3.832-2.608 6.144.448 1.509-1.936 2.521-3.219 1.61-1.284-.912-1.6-2.647-1.853-4.201-.981-6.023-2.95-12.515-8.094-15.798-.449-.287-.964-.554-1.491-.47ZM106.16 103.972c.676.219 1.35.827 1.209 1.523-.133.659-.891.968-1.553 1.081-.94.161-2.165-.024-2.43-.94-.251-.871.662-1.707 1.564-1.802.406-.043.821.011 1.21.138Zm108.451-12.545c-.631.598-.938 1.45-1.224 2.27-.647 1.85-1.302 3.755-1.227 5.713.048 1.261-.684 2.396-1.206 3.545-.521 1.148-.805 2.619.014 3.579 1.954-1.644 2.423-4.41 2.853-6.927.514-3.01 1.213-6.13 3.159-8.482-.681-.539-1.739-.295-2.369.302Zm-51.505 8.388c.503.161 1.073.485 1.079 1.013.007.643-.784.939-1.416 1.054l-.951.174c-.808.148-1.673.29-2.424-.043-.751-.332-1.251-1.346-.761-2.005.317-.426.9-.542 1.43-.575a8.298 8.298 0 0 1 3.043.382Zm-73.453-9.283c.884.422 1.873 1.255 1.546 2.179-9.106-1.986-18.833-1.004-27.358 2.761-3.837 1.694-7.437 3.934-11.407 5.284-1.359.462-2.841.817-4.214.398-1.372-.419-2.516-1.875-2.115-3.252.377-1.293 1.817-1.908 3.092-2.34a193.827 193.827 0 0 1 19.156-5.405c7.061-1.606 14.767-2.75 21.3.375Zm130.743-.11c-.65-.002-1.197.475-1.625.965-1.037 1.188-1.774 2.613-2.322 4.092a19.606 19.606 0 0 0-1.191 5.733 139.87 139.87 0 0 1 6.033-9.48c.371-.533-.245-1.307-.895-1.31Zm-11.538 5.77c-.178.002-.366.008-.517.104-.339.215-.292.717-.191 1.105.319 1.233.76 2.434 1.316 3.58a19.868 19.868 0 0 1 1.59-4.67 18.382 18.382 0 0 0-2.198-.119Zm-142.68-4.161L50.009 97c-.644.198-1.39.503-1.528 1.163.438.64 1.273.91 2.047.873.774-.037 1.51-.335 2.227-.628l16.403-6.702c-.976-.273-2.01.027-2.98.325Zm56.875 3.023c-.29.502-.892.715-1.344 1.079-.452.363-.717 1.145-.24 1.475l2.19-2.193a1.025 1.025 0 0 0-.606-.361Zm56.866-.389c3.917.408 7.87.616 11.795.278 1.015-.087 2.229-.128 2.832.694-.761.774-1.957.868-3.041.915l-12.22.523c-.795.034-1.801-.067-2.059-.82-.203-.592.258-1.245.838-1.483.579-.238 1.232-.172 1.855-.107Zm60.567-4.28a4.766 4.766 0 0 1 .899 4.214c-.097.355-.239.704-.467.994-.595.76-1.696.986-2.635.76-.94-.225-1.745-.823-2.462-1.47-.74-.668-1.433-1.43-1.788-2.36-.355-.93-.313-2.063.316-2.834.519-.637 1.357-.942 2.176-1.002a4.767 4.767 0 0 1 3.961 1.698Zm-132.066 2.68c.374.303.311.93-.008 1.29-.32.36-.807.514-1.274.63-.552.138-1.131.245-1.684.114-.553-.131-1.071-.56-1.139-1.124-.099-.819.758-1.46 1.572-1.588a3.274 3.274 0 0 1 2.533.678Zm127.728-2.409c-.415.537-.142 1.507.531 1.599.777.106 1.382.922 1.256 1.697-.098.608.643 1.116 1.231.933.589-.182.929-.842.916-1.457-.013-.616-.307-1.19-.64-1.708-.368-.57-.817-1.125-1.436-1.403-.62-.278-1.443-.198-1.858.34Zm-2.069-55.19c-5.648 1.035-11.243 3.502-14.886 7.94-3.642 4.439-4.902 11.081-2.054 16.067 1.006 1.762 2.543 3.298 4.475 3.919 1.932.62 4.268.163 5.557-1.404 1.462-1.777 4.414-.072 6.614-.747a37.367 37.367 0 0 1 9.389-1.607c.754-.032 1.532-.036 2.235.237.765.296 1.368.89 1.949 1.468 2.013 2.006 4.068 4.07 5.26 6.65 1.89 4.092 1.422 9.08 3.81 12.904l.838-7.192c.103-.89.218-1.813.699-2.568.481-.756 1.442-1.286 2.284-.98 1.484.54 3.03 1.118 4.096 2.284 1.065 1.167 1.46 3.11.435 4.313-.99 1.162.134 2.841.659 4.274.911 2.483-.16 5.32.556 7.866.593 2.109 2.306 3.683 3.943 5.14.479.425 1.037.88 1.675.821.534-.049.963-.447 1.328-.84a17.032 17.032 0 0 0 4.242-8.464c.232-1.27-.209-3.119-1.488-2.945.349-3.046 3.149-5.12 4.793-7.708 1.774-2.79 2.192-6.222 2.273-9.528.082-3.322-.242-6.932-2.456-9.41-2.66-2.978-7.828-3.2-10.734-.462-.724.682-1.679 1.584-2.543 1.09l2.032-3.644c1.104-1.98 2.231-4.032 2.455-6.288.443-4.45-2.945-8.664-7.135-10.23-4.19-1.564-8.92-.915-13.122.616-1.053.383-2.298 1.207-2.012 2.291.165.628.801 1.007 1.128 1.568.203.35.183.462-.047.745-.139.171-.39.666-.614.57-2.383-2.76-4.96-5.648-8.453-6.692-2.315-.692-4.804-.489-7.181-.053Zm-27.06 56.91c-.298-.176-.868-.291-.812.05.161.836.913 1.458 1.725 1.713.812.256 1.684.213 2.534.167.332-.018.687-.044.952-.246.221-.169.343-.435.456-.69l.58-1.312c-1.579-1.028-3.813 1.28-5.435.319Zm-45.617-2.854c.664.05 1.324.166 1.965.345.556.156 1.195.481 1.223 1.058.036.76-.952 1.07-1.709 1.135l-2.312.2c-.561.048-1.196.073-1.609-.31-.554-.516-.33-1.516.27-1.976.6-.461 1.417-.509 2.172-.452Zm18.021-.165c3.685.493 7.421.612 11.13.354.435-.03.909-.056 1.268.193.358.249.447.89.056 1.084-.119.058-.256.064-.388.07-4.484.168-8.969.337-13.453.507-.409.015-.859.017-1.174-.244-.563-.47-.239-1.471.406-1.818.646-.346 1.429-.243 2.155-.146Zm35.783-3.653c-1.432.077-2.889.21-4.211.765-1.322.556-2.507 1.6-2.902 2.979-.08.28-.11.624.104.82.168.153.419.155.645.147a32.721 32.721 0 0 0 7.048-1.055c1.145-.301 2.524-1.028 2.369-2.202-.081-.617-.614-1.1-1.202-1.305-.589-.204-1.229-.182-1.851-.149Zm-165.171-.172a13.031 13.031 0 0 0-.166 3.672c.296.32.685-.304.66-.738a13.613 13.613 0 0 0-.495-2.934Zm76.581-1.478 24.732 1.117c.769.035 1.791.33 1.746 1.099-.984.632-2.253.501-3.415.366a110.968 110.968 0 0 0-22.155-.353c-.637.054-1.312.106-1.88-.186-.569-.292-.935-1.07-.566-1.592.323-.456.98-.477 1.538-.451Zm-19.99-.865c.362.055.74.15 1.004.405.602.584.23 1.693-.494 2.116-.725.423-1.622.364-2.458.291-.917-.079-1.214-1.455-.612-2.15.602-.697 1.649-.8 2.56-.662Zm28.994-3.05 40.307 2.092c.72.037 1.672.314 1.634 1.034-2.215.399-4.51.354-6.708-.13l1.952 1.68c-.931.586-1.922 1.192-3.022 1.217-1.1.024-2.297-.787-2.266-1.887l1.67-.77a300.67 300.67 0 0 0-32.649-1.016c-.628.015-1.299.02-1.829-.317-.531-.337-.8-1.156-.36-1.605.314-.322.822-.32 1.271-.297Zm86.998 1.798c-.484.026-.895.347-1.27.655l-1.335 1.091c-.466.382-.971.837-.998 1.438-.015.327.234.714.552.64a.715.715 0 0 0 .241-.126l3.179-2.242c.216-.153.447-.325.517-.58.128-.468-.402-.903-.886-.876Zm16.481-3.915c.042 1.09-.499 2.111-.691 3.185-.193 1.073.174 2.44 1.235 2.692.313.074.404.522.227.79-.176.27-.511.385-.827.443-.983.178-2.148-.138-2.6-1.029-.226-.446-.243-.965-.256-1.465l-.103-4.018c-.024-.915.079-2.043.917-2.412.997-.44 2.056.724 2.098 1.814Zm-14.615 6.075a.574.574 0 0 0-.324.513l-.048.013c.108.238.495.275.646.062.151-.214-.013-.566-.274-.588Zm-1.853-7c-.445.012-.942.093-1.205.451-.281.384-.167.947.122 1.324.288.378.714.621 1.111.883a10.28 10.28 0 0 1 3.784 4.554l1.587-2.089c.395-.52.811-1.114.728-1.762-.06-.468-.374-.862-.708-1.195a7.491 7.491 0 0 0-5.419-2.165ZM52.23 66.326c-.622.05-.944.748-1.14 1.34l-.892 2.706c-.325.986-.653 1.983-.742 3.017-.06.685-.012 1.374.034 2.06l.44 6.43c.027.413.343.986.685.75a65.96 65.96 0 0 1 1.615-16.303Zm175.749 7.88c-.564.214-1.163.592-1.245 1.19-.081.598.799 1.153 1.141.655.435-.635 1.525-.303 1.885.377.36.681.255 1.5.249 2.27-.005.77.172 1.654.843 2.032l.338-3.092c.139-1.272.131-2.85-.987-3.472-.669-.373-1.508-.234-2.224.04Zm18.112-.583c.915.04 1.893.36 2.394 1.127.5.768.235 2.025-.648 2.272-1.259.353-2.436-1.421-3.667-.98-.77.275-1.245 1.357-2.048 1.202-.498-.096-.774-.693-.675-1.19.1-.497.471-.895.868-1.21a5.731 5.731 0 0 1 3.776-1.22ZM105.9 72.716c.883.142 1.746 1.109 1.281 1.872-.13.214-.343.367-.565.483-.55.29-1.229.389-1.797.136-.568-.253-.968-.908-.814-1.51.193-.758 1.124-1.106 1.895-.981Zm141.626-5.025c.608.578 1.081 1.665.401 2.155-.719.519-1.581-.356-2.269-.915a3.558 3.558 0 0 0-2.788-.738c-.625.104-1.214.376-1.841.467-.627.09-1.356-.053-1.698-.586-.359-.56-.131-1.352.363-1.796.493-.445 1.179-.608 1.841-.669a7.787 7.787 0 0 1 5.991 2.082Zm-141.656-1.77c.541.318.833 1.067.532 1.618-.399.729-1.443.719-2.249.519-.29-.073-.595-.168-.787-.397-.459-.546.055-1.404.695-1.72.564-.278 1.267-.337 1.809-.02Z" fill="#00160A"/>
  <path fill-rule="evenodd" clip-rule="evenodd" d="M33.135 139.148c.075.206.143.436.058.637-.152.362-.646.376-1.038.373-2.758-.023-5.322 2.346-5.518 5.097-.02.29-.42.423-.678.289-.258-.135-.392-.425-.48-.703-.505-1.563-.18-3.315.623-4.748.803-1.432 2.046-2.575 3.396-3.51.524-.363 1.176-.711 1.769-.477.391.155.647.528.86.891.402.684.74 1.405 1.008 2.151Zm-1.601-.313c-.243-.743-1.228-1.009-1.964-.747-.736.263-1.272.888-1.773 1.488-.475.568-.971 1.189-1.027 1.927a9.201 9.201 0 0 1 4.764-2.668Z" fill="#FFB61D"/>
</svg>