<svg viewBox="0 0 1198 143" xmlns="http://www.w3.org/2000/svg" xml:space="preserve" style="fill-rule:evenodd;clip-rule:evenodd;stroke-linejoin:round;stroke-miterlimit:2">
  <path d="M.477-.536h.105C.579-.653.476-.737.328-.737c-.145 0-.257.083-.257.209 0 .101.072.16.189.192l.086.023c.078.021.138.046.138.111 0 .071-.068.118-.162.118-.084 0-.154-.038-.161-.117h-.11c.007.132.109.213.272.213.171 0 .269-.09.269-.213 0-.131-.117-.182-.209-.205L.312-.424C.255-.439.18-.465.18-.535c0-.062.057-.107.146-.107.083 0 .143.039.151.106Z" style="fill-rule:nonzero" transform="translate(201.266 104.665) scale(90.35601)"/>
  <path d="M.071 0h.107v-.545H.071V0Zm.054-.63c.037 0 .067-.028.067-.063S.162-.756.125-.756c-.037 0-.067.028-.067.063s.03.063.067.063Z" style="fill-rule:nonzero" transform="translate(256.696 104.665) scale(90.35601)"/>
  <path d="M.306.011c.119 0 .204-.059.228-.147L.433-.154c-.019.051-.065.077-.125.077-.091 0-.152-.059-.155-.164H.54v-.037c0-.197-.117-.275-.241-.275-.152 0-.252.116-.252.284 0 .169.099.28.259.28ZM.153-.32C.157-.398.213-.465.3-.465c.082 0 .136.061.136.145H.153Z" style="fill-rule:nonzero" transform="translate(276.478 104.665) scale(90.35601)"/>
  <path d="M.071 0h.107v-.333c0-.071.055-.123.13-.123.022 0 .047.004.055.006v-.101a.299.299 0 0 0-.045-.003.142.142 0 0 0-.138.095H.174v-.086H.071V0Z" style="fill-rule:nonzero" transform="translate(326.837 104.665) scale(90.35601)"/>
  <path d="M.071 0h.107v-.333c0-.071.055-.123.13-.123.022 0 .047.004.055.006v-.101a.299.299 0 0 0-.045-.003.142.142 0 0 0-.138.095H.174v-.086H.071V0Z" style="fill-rule:nonzero" transform="translate(358.845 104.665) scale(90.35601)"/>
  <path d="M.23.012c.09 0 .141-.046.161-.087h.005V0h.103v-.362c0-.159-.125-.191-.211-.191-.099 0-.19.04-.226.14l.1.022c.016-.038.056-.076.127-.076.069 0 .104.036.104.098v.003c0 .038-.04.038-.138.049-.103.012-.209.039-.209.163 0 .107.08.166.184.166Zm.023-.085C.193-.073.15-.1.15-.153.15-.21.2-.23.262-.238c.034-.005.116-.014.131-.029v.07c0 .065-.051.124-.14.124Z" style="fill-rule:nonzero" transform="translate(390.404 104.665) scale(90.35601)"/>
  <path d="M.667-.727H.558v.534H.551l-.37-.534H.08V0h.11v-.533h.006L.566 0h.101v-.727Z" style="fill-rule:nonzero" transform="translate(460.354 104.665) scale(90.35601)"/>
  <path d="M.306.011c.119 0 .204-.059.228-.147L.433-.154c-.019.051-.065.077-.125.077-.091 0-.152-.059-.155-.164H.54v-.037c0-.197-.117-.275-.241-.275-.152 0-.252.116-.252.284 0 .169.099.28.259.28ZM.153-.32C.157-.398.213-.465.3-.465c.082 0 .136.061.136.145H.153Z" style="fill-rule:nonzero" transform="translate(525.123 104.665) scale(90.35601)"/>
  <path d="M.538-.545H.424l-.138.419H.281L.142-.545H.028L.227 0H.34l.198-.545Z" style="fill-rule:nonzero" transform="translate(574.006 104.665) scale(90.35601)"/>
  <path d="M.23.012c.09 0 .141-.046.161-.087h.005V0h.103v-.362c0-.159-.125-.191-.211-.191-.099 0-.19.04-.226.14l.1.022c.016-.038.056-.076.127-.076.069 0 .104.036.104.098v.003c0 .038-.04.038-.138.049-.103.012-.209.039-.209.163 0 .107.08.166.184.166Zm.023-.085C.193-.073.15-.1.15-.153.15-.21.2-.23.262-.238c.034-.005.116-.014.131-.029v.07c0 .065-.051.124-.14.124Z" style="fill-rule:nonzero" transform="translate(620.996 104.665) scale(90.35601)"/>
  <path d="M.276.011a.166.166 0 0 0 .157-.096h.009V0h.104v-.727H.44v.27H.433C.414-.491.378-.553.276-.553c-.131 0-.228.104-.228.281 0 .177.095.283.228.283ZM.299-.08C.204-.08.155-.163.155-.273c0-.108.048-.189.144-.189.093 0 .142.075.142.189 0 .115-.05.193-.142.193Z" style="fill-rule:nonzero" transform="translate(669.723 104.665) scale(90.35601)"/>
  <path d="M.23.012c.09 0 .141-.046.161-.087h.005V0h.103v-.362c0-.159-.125-.191-.211-.191-.099 0-.19.04-.226.14l.1.022c.016-.038.056-.076.127-.076.069 0 .104.036.104.098v.003c0 .038-.04.038-.138.049-.103.012-.209.039-.209.163 0 .107.08.166.184.166Zm.023-.085C.193-.073.15-.1.15-.153.15-.21.2-.23.262-.238c.034-.005.116-.014.131-.029v.07c0 .065-.051.124-.14.124Z" style="fill-rule:nonzero" transform="translate(723.55 104.665) scale(90.35601)"/>
  <path d="M.08 0h.46v-.094H.19v-.223h.322v-.094H.19v-.222h.346v-.094H.08V0Z" style="fill-rule:nonzero" transform="translate(793.5 104.665) scale(90.35601)"/>
  <path d="M.276.011a.166.166 0 0 0 .157-.096h.009V0h.104v-.727H.44v.27H.433C.414-.491.378-.553.276-.553c-.131 0-.228.104-.228.281 0 .177.095.283.228.283ZM.299-.08C.204-.08.155-.163.155-.273c0-.108.048-.189.144-.189.093 0 .142.075.142.189 0 .115-.05.193-.142.193Z" style="fill-rule:nonzero" transform="translate(845.273 104.665) scale(90.35601)"/>
  <path d="M.417-.226a.13.13 0 0 1-.128.137c-.066 0-.111-.048-.111-.122v-.334H.071v.346c0 .136.075.206.179.206a.169.169 0 0 0 .163-.101h.006V0h.104v-.545H.417v.319Z" style="fill-rule:nonzero" transform="translate(899.095 104.665) scale(90.35601)"/>
  <path d="M.301.011c.129 0 .212-.077.224-.184H.422a.117.117 0 0 1-.12.094c-.09 0-.148-.075-.148-.194 0-.117.059-.19.148-.19.067 0 .109.043.12.094h.103C.514-.479.424-.553.3-.553c-.154 0-.253.116-.253.283 0 .164.096.281.254.281Z" style="fill-rule:nonzero" transform="translate(950.097 104.665) scale(90.35601)"/>
  <path d="M.23.012c.09 0 .141-.046.161-.087h.005V0h.103v-.362c0-.159-.125-.191-.211-.191-.099 0-.19.04-.226.14l.1.022c.016-.038.056-.076.127-.076.069 0 .104.036.104.098v.003c0 .038-.04.038-.138.049-.103.012-.209.039-.209.163 0 .107.08.166.184.166Zm.023-.085C.193-.073.15-.1.15-.153.15-.21.2-.23.262-.238c.034-.005.116-.014.131-.029v.07c0 .065-.051.124-.14.124Z" style="fill-rule:nonzero" transform="translate(998.696 104.665) scale(90.35601)"/>
  <path d="M.326-.545H.214v-.131H.108v.131h-.08v.085h.08v.322c0 .099.075.147.159.145a.21.21 0 0 0 .069-.011L.317-.092c-.007.001-.02.005-.038.005-.034 0-.065-.012-.065-.073v-.3h.112v-.085Z" style="fill-rule:nonzero" transform="translate(1047.42 104.665) scale(90.35601)"/>
  <path d="M.071 0h.107v-.545H.071V0Zm.054-.63c.037 0 .067-.028.067-.063S.162-.756.125-.756c-.037 0-.067.028-.067.063s.03.063.067.063Z" style="fill-rule:nonzero" transform="translate(1078.304 104.665) scale(90.35601)"/>
  <path d="M.301.011c.154 0 .254-.113.254-.281 0-.17-.1-.283-.254-.283S.047-.44.047-.27c0 .168.1.281.254.281Zm0-.089c-.1 0-.147-.088-.147-.193 0-.104.047-.193.147-.193.1 0 .147.089.147.193 0 .105-.047.193-.147.193Z" style="fill-rule:nonzero" transform="translate(1098.086 104.665) scale(90.35601)"/>
  <path d="M.178-.324c0-.087.053-.137.127-.137.072 0 .115.048.115.127V0h.107v-.347c0-.135-.075-.206-.186-.206-.082 0-.136.038-.161.096H.173v-.088H.071V0h.107v-.324Z" style="fill-rule:nonzero" transform="translate(1149.795 104.665) scale(90.35601)"/>
  <path d="M140.27 142.005 70.475.714.681 142.005H140.27ZM91.633 59.443l37.306 75.521H12.012l37.306-75.521h42.315ZM52.796 52.4h35.359l-17.68-35.789-17.679 35.79Z"/>
</svg>