<?xml version="1.0" standalone="no"?>
<!DOCTYPE svg PUBLIC "-//W3C//DTD SVG 20010904//EN"
 "http://www.w3.org/TR/2001/REC-SVG-20010904/DTD/svg10.dtd">
<svg version="1.0" xmlns="http://www.w3.org/2000/svg"
 width="700.000000pt" height="700.000000pt" viewBox="0 0 700.000000 700.000000"
 preserveAspectRatio="xMidYMid meet">
<metadata>
Created by potrace 1.14, written by Peter Selinger 2001-2017
</metadata>
<g transform="translate(0.000000,700.000000) scale(0.100000,-0.100000)"
fill="#000000" stroke="none">
<path d="M3365 6728 c-70 -145 -141 -290 -157 -323 -16 -33 -33 -67 -38 -75
-5 -8 -55 -109 -111 -225 -111 -228 -304 -622 -559 -1140 -89 -181 -213 -433
-275 -560 -62 -126 -183 -374 -270 -550 -172 -350 -363 -739 -558 -1135 -68
-140 -191 -390 -272 -555 -137 -279 -231 -469 -550 -1120 -67 -137 -209 -425
-314 -639 -105 -213 -191 -389 -191 -390 0 -1 1544 -2 3430 -2 1887 0 3430 1
3430 2 0 1 -88 181 -196 400 -108 220 -247 503 -309 629 -62 127 -186 379
-275 560 -89 182 -219 445 -287 585 -69 140 -189 383 -266 540 -325 664 -426
868 -542 1105 -67 138 -202 412 -300 610 -98 198 -230 468 -295 600 -140 287
-304 621 -547 1115 -99 201 -231 470 -293 598 -63 127 -117 232 -120 232 -3 0
-64 -118 -135 -262z m337 -925 c275 -561 464 -944 570 -1163 50 -102 92 -187
94 -190 1 -3 -388 -6 -866 -6 -478 0 -867 3 -865 6 1 3 49 100 105 215 184
376 344 703 543 1107 108 219 198 406 202 418 3 11 9 20 11 20 3 0 96 -183
206 -407z m840 -1713 c2 -3 25 -48 50 -100 26 -52 140 -284 253 -515 114 -231
245 -496 290 -590 45 -93 167 -341 270 -550 103 -209 236 -479 295 -600 59
-121 175 -357 257 -525 364 -740 413 -840 413 -843 0 -3 -1291 -4 -2870 -4
-1579 0 -2870 1 -2870 3 0 4 118 246 407 834 183 372 371 754 551 1120 323
660 409 834 564 1150 91 184 197 400 236 480 l71 145 1040 0 c572 0 1041 -2
1043 -5z"/>
</g>
</svg>
