<svg width="615" height="568" viewBox="0 0 615 568" fill="none" xmlns="http://www.w3.org/2000/svg">
<path fill-rule="evenodd" clip-rule="evenodd" d="M141.171 359.72C108.696 319.674 62.6374 273.916 69.1802 226.331C75.8433 177.869 133.808 170.022 170.616 145.565C196.497 128.369 224.338 119.102 251.965 104.88C293.556 83.4701 323.948 31.9579 373.18 41.2899C423.981 50.919 467.809 101.369 496.647 151.259C525.363 200.936 535.688 259.102 529.793 312.224C524.256 362.113 497.789 402.199 465.263 434.04C435.456 463.219 397.623 483.171 354.669 483.657C314.95 484.105 277.286 458.414 239.688 436.588C203.526 415.596 168.702 393.669 141.171 359.72Z" fill="#54C494"/>
<path fill-rule="evenodd" clip-rule="evenodd" d="M431.024 110.643C440.064 109.945 449.809 110.397 457.175 115.683C464.542 120.968 467.889 132.576 461.84 139.33C468.679 136.656 476.717 141.191 480.142 147.686C483.568 154.181 483.389 161.963 482.358 169.233C479.806 187.239 472.466 204.543 461.294 218.892C460.781 220.405 460.267 221.918 459.754 223.43C472.959 226.835 524.522 246.86 510.59 296.226C496.658 345.593 435.813 364.382 429.585 370.29C418.729 380.589 402.16 381.293 387.205 380.818C350.433 379.651 313.773 374.978 277.884 366.882C274.833 366.194 270.968 365.775 269.209 368.361C256.478 387.079 229.856 388.752 207.278 387.123C178.276 385.03 149.441 380.632 121.134 373.983C105.077 370.211 88.0272 364.96 78.0246 351.846C66.3637 336.557 67.7103 315.361 69.6025 296.226C61.9381 300.487 49.2262 302.795 31.4668 303.15C21.0105 301.017 14.4881 297.227 11.8997 291.779C0.0629781 266.866 -3.99609 234.762 10.7439 210.206C12.5146 207.256 14.5575 204.349 17.4408 202.472C20.4975 200.482 24.2241 199.827 27.8574 199.506C42.188 198.236 56.8915 201.581 69.2626 208.925C69.1521 168.717 69.0417 128.509 68.9312 88.3006C68.9249 85.998 68.9569 83.5547 70.1845 81.6066C71.9601 78.789 75.5973 77.9157 78.8711 77.3046C108.652 71.7452 138.77 67.9958 169.005 66.084C178.884 65.4593 192.404 68.2087 192.449 78.1073C192.621 116.015 192.794 153.923 192.966 191.831C193.007 200.854 193.587 200.099 197.814 197.485C195.157 197.76 195.749 193.253 197.763 191.498C205.281 184.944 216.236 184.703 226.208 184.805C248.515 185.034 270.821 185.262 293.128 185.49C314.741 185.711 340.66 188.452 350.445 207.725C350.161 201.997 355.353 196.592 361.087 196.645C367.341 196.702 372.572 191.277 374.397 185.295C376.222 179.313 375.417 172.885 374.596 166.685C364.512 156.921 361.872 140.323 368.429 127.912C374.986 115.5 390.186 108.327 403.935 111.154C412.816 112.981 421.984 111.342 431.024 110.643ZM172.188 296.592C171.891 304.573 171.577 312.662 169.228 320.295L172.188 296.592ZM162.946 198.643C165.022 199.25 167.591 201.091 166.501 202.96C175.52 203.861 172.827 203.443 173.233 192.815C173.645 182.031 173.679 170.106 166.619 161.943C160.371 154.721 150.182 152.462 140.667 151.649C129.561 150.701 118.335 151.157 107.342 153.002C101.979 153.902 96.1689 155.453 93.0563 159.913C91.3142 162.409 90.6733 165.492 90.1616 168.492C88.1485 180.295 87.5198 192.334 88.2924 204.282C111.415 193.524 138.47 191.48 162.946 198.643ZM363.618 277.879C364.183 277.308 365.04 277.17 365.836 277.06C369.013 276.623 372.191 276.186 375.368 275.749C368.076 272.455 363.656 264.631 362.335 256.739C361.015 248.847 362.304 240.778 363.607 232.883C358.942 238.074 359.278 245.906 359.889 252.859C361.227 268.076 363.053 278.45 363.618 277.879ZM303.622 352.831C304.247 350.798 306.374 349.706 307.932 348.259C310.736 345.653 311.777 341.713 312.692 337.996C315.853 325.151 319.033 312.149 318.993 298.921C318.985 296.119 318.843 293.24 319.771 290.595C320.698 287.951 323.024 285.559 325.826 285.546C328.781 285.531 329.487 281.432 329.223 278.489C328.312 268.34 327.401 258.192 326.49 248.043C326.199 244.802 325.902 241.53 324.918 238.428C321.282 226.958 307.267 220.023 295.943 224.09C294.556 224.588 294.186 226.339 294.029 227.803C292.285 244.036 290.542 260.27 288.799 276.503C288.49 279.387 292.214 281.227 295.025 280.513C297.837 279.799 299.983 277.602 302.414 276.02C304.845 274.437 308.272 273.526 310.504 275.378C313.027 277.472 316.761 275.146 318.953 272.708C321.144 270.269 323.998 267.33 327.115 268.347C323.459 271.844 319.803 275.341 316.147 278.839C314.934 279.999 313.865 282.315 315.398 283C319.598 281.51 323.396 278.899 326.291 275.51C327.63 275.467 327.693 277.57 326.946 278.681C324.131 282.87 317.506 283.803 315.801 288.552C311.819 299.639 299.403 307.003 287.765 305.179C285.378 304.805 284.188 307.945 283.901 310.344C282.755 319.91 281.61 329.476 280.464 339.042C280.201 341.242 279.955 343.57 280.861 345.592C282.373 348.968 286.416 350.245 290.001 351.153C294.739 352.353 299.532 353.56 304.376 354.084C306.415 354.305 306.407 353.557 303.622 352.831ZM114.842 335.292C121.612 337.56 128.779 338.328 135.879 339.082C138.89 339.402 142.097 339.689 144.798 338.321C147.977 336.71 149.672 333.22 151.039 329.928C158.665 311.573 163.02 291.863 163.836 272.003C163.952 269.18 160.339 267.935 157.52 267.745C135.023 266.236 113.508 276.125 93.1325 285.783C92.156 286.246 91.1109 286.774 90.6284 287.741C90.2686 288.462 90.2874 289.305 90.3142 290.111C90.6792 301.083 91.1396 312.447 96.0465 322.268C97.3717 324.92 99.0574 327.472 101.444 329.231C102.89 330.297 104.544 331.036 106.185 331.767C109.032 333.035 111.886 334.302 114.842 335.292ZM260.379 294.686C263.378 278.559 265.491 262.267 266.707 245.909C267.123 240.312 267.427 234.623 266.218 229.143C265.008 223.664 262.089 218.337 257.317 215.383C254.377 213.564 250.935 212.747 247.531 212.14C241.319 211.031 234.999 210.529 228.69 210.641C223.123 210.74 217.279 211.418 212.735 214.635C211.232 215.699 209.866 217.091 209.317 218.849C208.768 220.607 209.231 222.766 210.755 223.799C214.609 226.408 216.18 231.291 216.902 235.888C217.624 240.486 217.798 245.3 219.893 249.456C220.973 251.599 222.522 253.469 224.147 255.236C232.956 264.813 244.446 271.899 256.96 275.47C259.16 276.098 261.959 277.457 261.494 279.697C268.414 284.062 260.264 295.304 260.379 294.686ZM241.307 342.252C243.855 340.704 245.583 338.127 247.104 335.563C253.557 324.682 257.788 312.49 259.463 299.951C236.251 299.846 213.178 291.088 195.743 275.765C195.146 278.16 195.26 280.666 195.341 283.133C195.85 298.533 194.937 313.98 192.615 329.213C192.062 332.844 194.232 336.475 197.214 338.62C200.196 340.764 203.87 341.685 207.477 342.38C215.608 343.946 223.916 344.589 232.192 344.29C235.339 344.177 238.616 343.887 241.307 342.252ZM387.781 209.413C386.428 206.153 385.412 202.476 382.605 200.336C379.798 198.195 374.513 199.242 374.348 202.769C377.126 202.257 379.25 205.686 378.776 208.471C378.303 211.256 376.278 213.47 374.67 215.792C372.447 219.001 370.927 222.633 369.424 226.235C365.846 234.804 364.453 244.276 365.413 253.512C365.978 258.95 367.468 264.536 371.145 268.582C374.823 272.628 381.125 274.652 385.971 272.119C390.132 269.944 392.208 265.149 393.163 260.551C394.117 255.953 394.287 251.14 396.09 246.805C399.416 238.806 407.619 233.974 415.734 230.94C403.535 229.283 392.499 220.784 387.781 209.413ZM354.05 218.066C354.592 220.163 355.343 222.206 356.288 224.154C356.855 221.408 357.766 218.733 358.992 216.212C357.752 216.07 356.503 216.002 355.254 216.01C354.951 216.012 354.631 216.023 354.375 216.185C353.798 216.551 353.878 217.405 354.05 218.066ZM207.019 215.908C206.251 216.526 205.8 217.856 206.611 218.417C207.853 217.174 209.095 215.93 210.337 214.687C210.08 214.369 209.707 214.147 209.304 214.073C208.812 214.927 207.787 215.29 207.019 215.908Z" fill="white"/>
<path d="M422.044 207.001C424.696 207.001 426.847 204.85 426.847 202.197C426.847 199.545 424.696 197.394 422.044 197.394C419.391 197.394 417.241 199.545 417.241 202.197C417.241 204.85 419.391 207.001 422.044 207.001Z" fill="#FFB61D"/>
<path d="M394.536 202.197C395.982 202.197 397.155 201.025 397.155 199.578C397.155 198.131 395.982 196.958 394.536 196.958C393.089 196.958 391.916 198.131 391.916 199.578C391.916 201.025 393.089 202.197 394.536 202.197Z" fill="#FFB61D"/>
<path fill-rule="evenodd" clip-rule="evenodd" d="M146.46 133.275C154.32 133.325 162.179 133.375 170.038 133.425C170.406 133.427 170.802 133.438 171.098 133.656C171.705 134.101 171.463 135.143 170.838 135.563C170.214 135.982 169.405 135.965 168.653 135.939C161.737 135.699 154.8 136.058 147.945 137.011C146.903 137.156 145.803 137.308 144.828 136.912C143.853 136.516 143.107 135.348 143.556 134.396C144.025 133.402 145.361 133.268 146.46 133.275ZM120.178 132.504C120.676 133 120.438 133.912 119.884 134.346C119.331 134.779 118.59 134.866 117.89 134.937C110.923 135.643 103.955 136.348 96.9874 137.054C96.1634 137.137 95.3114 137.218 94.523 136.964C93.7346 136.71 93.0213 136.029 93.0027 135.201C92.9834 134.347 93.709 133.621 94.5187 133.348C95.3285 133.076 96.2082 133.152 97.06 133.219C104.199 133.781 111.408 133.457 118.468 132.257C119.059 132.157 119.753 132.08 120.178 132.504ZM119.202 119.129C119.723 119.549 119.538 120.45 119.015 120.868C118.493 121.285 117.782 121.355 117.115 121.407L94.7386 123.173C93.9009 123.239 93.0331 123.301 92.2429 123.015C91.4528 122.729 90.7597 121.993 90.8051 121.154C90.851 120.304 91.636 119.645 92.4633 119.444C93.2905 119.244 94.1567 119.393 94.9988 119.518C102.593 120.64 110.316 119.617 117.961 118.922C118.39 118.883 118.867 118.859 119.202 119.129ZM150.453 114.696C155.122 115.292 159.855 115.383 164.544 114.966C166.408 114.8 168.661 114.722 169.72 116.265C168.463 117.281 166.735 117.425 165.122 117.527C159.776 117.864 154.429 118.201 149.083 118.538C147.863 118.615 146.343 118.522 145.841 117.408C145.39 116.409 146.183 115.206 147.202 114.802C148.221 114.397 149.365 114.557 150.453 114.696ZM110.117 108.979C110.123 109.787 109.111 110.135 108.312 110.252L96.5613 111.975C95.7226 112.098 94.856 112.219 94.037 112.001C93.218 111.782 92.4522 111.13 92.3756 110.286C92.2819 109.253 93.2522 108.38 94.2652 108.155C95.2783 107.93 96.3278 108.166 97.357 108.298C100.906 108.755 104.487 107.975 108.063 107.853C108.939 107.822 110.111 108.104 110.117 108.979ZM166.815 106.167C167.724 106.268 168.657 106.811 168.9 107.693C167.286 108.914 165.152 109.136 163.135 109.315C159.684 109.621 156.232 109.927 152.78 110.233C151.564 110.34 150.348 110.448 149.133 110.556C148.243 110.635 147.319 110.709 146.484 110.393C145.649 110.078 144.935 109.249 145.06 108.366C145.256 106.973 147.084 106.611 148.49 106.641C153.708 106.754 158.991 107.541 164.103 106.491C164.999 106.306 165.906 106.065 166.815 106.167ZM171.398 92.9911C145.823 96.4397 119.601 94.6539 94.3772 100.11C92.8813 100.433 90.7934 100.449 90.4066 98.9683C90.4413 97.2234 92.6981 96.5937 94.4389 96.4695C118.976 94.7195 143.514 92.9696 168.052 91.2196C169.491 91.1169 171.512 91.5523 171.398 92.9911Z" fill="black"/>
<path fill-rule="evenodd" clip-rule="evenodd" d="M81.4329 358.102C81.7002 361.196 77.4349 362.244 74.3292 362.256C58.1883 362.32 42.0635 365.314 26.9754 371.048C24.6727 371.924 22.2084 373.026 21.0876 375.22C19.6037 378.124 21.2233 381.842 23.8487 383.777C26.474 385.713 29.825 386.303 33.0445 386.828C116.728 400.454 201.656 406.427 286.424 404.648L287.786 404.618C297.563 404.392 307.54 403.867 316.497 399.996C309.082 394.799 301.668 389.603 294.253 384.406C307.088 381.842 320.331 383.668 333.357 384.954C363.168 387.897 393.263 387.957 423.086 385.133C420.987 388.488 416.37 388.954 412.414 389.039C374.9 389.847 337.34 388.514 299.978 385.049C304.853 388.257 309.727 391.465 314.602 394.673C316.368 395.836 318.323 397.312 318.425 399.423C318.578 402.598 314.678 404.182 311.543 404.7C301.139 406.419 290.555 406.693 280.011 406.847C197.662 408.05 115.211 402.158 33.87 389.256C29.901 388.627 25.7885 387.924 22.4791 385.644C19.1697 383.364 16.9136 379.029 18.3042 375.259C19.6874 371.509 23.896 369.748 27.6957 368.507C45.084 362.827 63.1814 359.323 81.4329 358.102ZM192.449 78.1073C192.621 116.015 192.794 153.923 192.966 191.831C193.007 200.854 194.784 212.271 203.51 214.569C215.567 209.003 229.157 206.804 242.353 208.284C249.908 209.131 257.753 211.415 262.867 217.04C269.883 224.755 269.893 236.374 269.14 246.775C267.613 267.857 264.606 288.832 260.148 309.494C263.69 309.27 267.303 310.691 269.743 313.268C265.984 314.987 261.507 315.059 257.695 313.461C260.313 327.652 248.752 341.653 234.906 345.718C221.06 349.784 206.035 345.951 193.016 339.728C191.794 344.483 198.156 347.277 203.012 347.995C215.341 349.817 227.67 351.639 239.998 353.462C224.773 353.919 209.497 352.673 194.547 349.754C191.794 353.652 198.028 357.588 202.74 358.351C215.236 360.373 227.732 362.395 240.228 364.418C226.114 364.324 212.006 363.383 198.004 361.601C206.908 369.634 219.064 373.953 231.041 373.34C224.285 375.562 216.779 375.428 210.106 372.967C218.454 384.146 235.532 386.216 248.004 379.964C260.476 373.711 268.619 360.919 272.603 347.548C276.587 334.178 276.974 320.046 277.68 306.113C278.982 280.392 281.473 254.707 285.978 229.351C289.012 212.276 296.465 191.916 313.639 189.504C283.043 188.094 252.417 187.333 221.79 187.223C212.483 187.19 200.922 188.712 197.814 197.485C195.157 197.76 195.75 193.253 197.763 191.498C205.281 184.944 216.236 184.703 226.208 184.805L293.128 185.49C314.741 185.711 340.66 188.452 350.445 207.725C350.161 201.997 355.353 196.592 361.087 196.645C367.341 196.702 372.572 191.277 374.397 185.295C376.223 179.313 375.417 172.885 374.596 166.685C364.512 156.921 361.872 140.323 368.429 127.912C370.284 124.401 373.025 116.031 388.329 110.643C398.532 107.052 408.617 107.447 418.585 111.828C437.304 108.208 450.168 109.493 457.176 115.683C467.688 124.967 467.889 132.576 461.84 139.33C468.679 136.656 476.717 141.191 480.143 147.686C483.568 154.181 483.389 161.963 482.359 169.233C479.806 187.239 472.466 204.543 461.294 218.892L459.754 223.43C486.779 230.398 508.641 254.285 513.194 281.82C504.209 261.568 492.046 240.12 471.089 232.93C466.361 237.89 461.498 243.066 459.278 249.549C457.057 256.032 458.256 264.224 463.888 268.13C460.351 268.949 456.814 269.769 453.277 270.589C454.455 272.677 455.632 274.765 456.809 276.854C443.445 287.013 441.908 306.229 441.989 323.017C442.07 339.804 441.764 358.736 429.585 370.29C418.729 380.589 402.161 381.293 387.205 380.818C350.433 379.651 313.773 374.978 277.884 366.882C274.833 366.194 270.968 365.775 269.209 368.361C256.478 387.079 229.856 388.752 207.278 387.123C178.276 385.03 149.441 380.632 121.134 373.983C105.078 370.211 88.0273 364.96 78.0247 351.846C66.3637 336.557 67.7104 315.361 69.6025 296.226C58.1059 302.618 44.4766 305.093 31.4668 303.15C45.1806 294.184 51.8308 277.032 51.9557 260.648C52.0807 244.264 46.6118 228.383 40.5275 213.17C27.1217 220.946 20.0684 237.336 21.1172 252.798C22.1661 268.26 30.3698 282.611 41.3768 293.521C27.8082 284.958 18.8298 269.531 18.0867 253.503C17.3435 237.476 24.8559 221.285 37.5739 211.503C35.5416 204.553 25.0568 203.703 19.5616 208.419C14.0664 213.134 12.3419 220.788 10.9283 227.889C8.31645 241.011 5.6938 254.44 7.59152 267.684C9.48924 280.928 16.8052 294.185 29.0646 299.544C23.3354 303.674 15.7046 297.729 11.8997 291.779C-3.53007 267.65 -3.99604 234.762 10.744 210.206C12.5146 207.256 14.5576 204.349 17.4408 202.472C20.4976 200.482 24.2241 199.827 27.8574 199.506C42.1881 198.236 56.8915 201.581 69.2627 208.925C69.1522 168.717 69.0417 128.509 68.9313 88.3006C68.9249 85.998 68.957 83.5547 70.1846 81.6066C71.9601 78.789 75.5973 77.9157 78.8712 77.3046C108.652 71.7452 138.771 67.9958 169.005 66.084C178.884 65.4593 192.404 68.2087 192.449 78.1073ZM172.256 68.5065C140.2 70.0155 108.26 73.9781 76.8074 80.3484C75.4688 80.6196 74.0513 80.9362 73.0783 81.8946C71.7529 83.2002 71.6504 85.2689 71.633 87.1293C71.2574 127.166 71.4162 167.207 72.1094 207.24C75.9585 206.28 79.8076 205.32 83.6567 204.36C82.1521 196.146 80.641 187.82 81.2844 179.494C81.9277 171.167 84.9833 162.699 91.268 157.2C98.07 151.248 107.562 149.566 116.579 148.933C125.249 148.324 133.972 148.465 142.618 149.354C151.444 150.261 160.742 152.221 167.11 158.4C176.308 167.325 176.456 181.785 175.98 194.593C174.716 228.593 173.452 262.592 172.188 296.592C171.891 304.573 171.577 312.662 169.228 320.295C166.879 327.928 162.217 335.183 155.164 338.929C148.242 342.605 139.96 342.501 132.173 341.616C124.739 340.771 117.376 339.297 110.189 337.215C105.823 335.95 101.455 334.428 97.7452 331.802C85.4684 323.114 84.0169 305.778 83.7188 290.741C79.0047 289.89 74.3964 293.478 72.45 297.855C70.5036 302.232 70.5898 307.205 70.7107 311.994C71.0123 323.939 71.4778 336.48 77.5757 346.756C86.9841 362.611 106.746 368.468 124.789 372.254C156.815 378.974 189.331 383.356 221.993 385.355C207.416 377.931 194.493 365.224 191.418 349.157C190.583 344.793 190.493 340.324 190.406 335.881C188.705 249.009 187.003 162.137 185.301 75.2647C185.193 69.7709 177.745 68.2481 172.256 68.5065ZM296.521 211.134C295.71 213.112 295.121 215.306 295.661 217.374C296.201 219.442 298.21 221.247 300.318 220.896C309.761 219.323 319.939 223.974 324.931 232.142C329.05 238.882 329.622 247.128 330.085 255.013L334.308 326.836C334.76 334.511 334.983 342.957 330.212 348.986C324.023 356.809 312.402 357.07 302.474 356.099C294.282 355.298 285.664 353.935 279.304 348.71C279.53 351.751 278.643 354.863 276.849 357.328C274.634 360.372 278.21 364.377 281.688 365.816C285.936 367.573 290.555 368.185 295.114 368.777C315.995 371.488 336.889 374.101 357.795 376.618C373.886 378.555 390.235 380.431 406.232 377.831C396.112 374.991 386.427 370.602 377.621 364.863C373.227 362 368.978 358.73 365.982 354.426C361.09 347.4 360.059 338.474 359.245 329.952C356.825 304.611 355.023 279.211 353.843 253.782C352.972 235.027 346.958 216.535 336.629 200.855C334.782 198.052 332.523 195.142 329.258 194.362C316.274 191.258 301.587 198.784 296.521 211.134ZM236.989 373.441C238.091 373.628 239.221 373.875 240.129 374.526C241.037 375.177 241.67 376.333 241.39 377.415C241.111 378.496 239.683 379.208 238.781 378.548C237.786 377.821 236.463 377.796 235.277 377.46C234.091 377.125 232.847 376.14 233.06 374.926C233.33 373.387 235.449 373.179 236.989 373.441ZM191.266 373.898C192.633 374.181 194.232 375.156 193.952 376.523C193.705 377.729 192.214 378.13 190.994 378.293C189.627 378.476 188.167 378.645 186.926 378.044C185.685 377.443 184.879 375.747 185.694 374.634C186.243 373.883 187.271 373.683 188.2 373.645C189.228 373.604 190.26 373.689 191.266 373.898ZM273.012 358.702C271.716 359.637 270.825 361.016 269.91 362.327C265.738 368.303 260.451 373.499 254.402 377.565C254.553 378.207 255.514 378.044 256.085 377.714C263.088 373.656 268.087 366.952 272.884 360.432C273.276 359.898 273.6 359.005 273.012 358.702ZM335.641 197.238C339.378 201.65 343.144 206.105 345.877 211.2C348.841 216.724 350.506 222.845 351.846 228.968C359.345 263.225 357.344 298.84 362.204 333.569C363.081 339.835 364.24 346.236 367.501 351.658C371.32 358.011 377.66 362.415 384.118 366.054C389.341 368.997 394.794 371.582 400.53 373.325C409.652 376.097 420.61 376.291 427.603 369.81C431.53 366.171 433.595 360.979 435.209 355.874C442.124 333.993 442.884 310.203 437.38 287.925C437.519 301.249 439.249 314.541 438.853 327.86C438.457 341.179 435.723 354.894 427.894 365.675C426.343 367.811 424.545 369.861 422.202 371.075C419.115 372.674 415.448 372.643 411.997 372.222C405.97 371.486 400.077 369.664 394.685 366.872C390.59 364.751 386.801 362.085 383.13 359.294C378.862 356.048 374.672 352.553 371.682 348.103C368.719 343.692 367.067 338.54 365.757 333.39C356.19 295.79 363.03 255.23 351.678 218.129C349.003 209.385 344.357 200.004 335.641 197.238ZM107.413 362.655C129.498 366.064 151.582 369.472 173.667 372.881C173.108 374.342 171.089 374.393 169.538 374.186C150.651 371.663 131.763 369.14 112.876 366.617C110.741 366.332 108.606 366.046 106.47 365.761C105.457 365.626 104.198 365.259 104.07 364.244C103.89 362.815 105.989 362.435 107.413 362.655ZM363.607 232.883C358.942 238.074 359.278 245.906 359.889 252.859C361.227 268.076 362.564 283.292 363.901 298.509C363.964 299.221 364.04 299.971 364.457 300.551C365.14 301.5 366.462 301.665 367.628 301.747C383.506 302.866 399.384 303.985 415.262 305.103C414.074 306.98 411.398 307.008 409.184 306.837C394.236 305.683 379.227 305.309 364.24 305.717C363.982 313.403 365.114 321.134 367.567 328.422C368.63 331.581 372.723 332.254 376.053 332.389C388.754 332.903 401.454 333.417 414.155 333.932C414.739 335.247 412.687 336.069 411.247 336.053C398.193 335.902 385.138 335.752 372.084 335.602C370.296 335.582 369.649 338.115 370.322 339.771C372.083 344.1 377.69 345.032 382.354 345.324L411.541 347.152C412.207 347.194 412.346 348.241 411.86 348.698C411.373 349.155 410.632 349.168 409.964 349.154L375.792 348.429C384.627 358.945 397.02 366.417 410.444 369.323C413.337 369.949 416.404 370.36 419.214 369.433C422.577 368.322 425.056 365.467 426.998 362.505C437.294 346.797 436.609 326.585 435.557 307.833L434.364 286.578C434.781 286.005 435.637 285.807 436.263 286.138C436.504 285.096 435.149 284.477 434.097 284.284C410.869 280.018 387.035 275.745 363.789 279.911C363.046 279.606 363.053 278.45 363.618 277.879C364.183 277.308 365.04 277.17 365.836 277.06C369.013 276.623 372.191 276.186 375.368 275.749C368.076 272.455 363.656 264.631 362.335 256.739C361.015 248.847 362.304 240.778 363.607 232.883ZM249.446 362.097C251.515 362.482 253.904 363.114 254.712 365.057C252.408 366.627 249.383 366.466 246.605 366.244C245.84 366.183 245.005 366.09 244.468 365.543C243.517 364.574 244.226 362.789 245.449 362.201C246.672 361.612 248.112 361.848 249.446 362.097ZM91.8795 347.898C115.673 355.374 140.33 360.101 165.202 361.954C167.131 362.098 169.724 363.017 169.354 364.916C143.05 361.941 116.906 357.545 91.0752 351.752C89.4268 351.382 87.3121 350.208 87.9259 348.634C88.4653 347.251 90.4633 347.453 91.8795 347.898ZM179.03 359.438C180.245 359.435 181.418 359.851 182.554 360.283C183.131 360.503 183.767 360.786 183.991 361.362C184.468 362.59 182.775 363.467 181.479 363.703C180.607 363.861 179.735 364.019 178.862 364.177C178.126 364.311 177.334 364.438 176.657 364.121C175.557 363.605 175.271 362.017 175.902 360.979C176.533 359.941 177.815 359.441 179.03 359.438ZM291.074 356.814C301.599 358.816 312.38 358.93 323.093 359.037C323.922 359.045 324.146 360.349 323.553 360.93C322.961 361.51 322.037 361.536 321.208 361.519C311.207 361.323 301.193 360.269 291.222 361.055C290.137 361.14 289.009 361.242 287.99 360.86C286.97 360.479 286.101 359.448 286.295 358.377C286.462 357.453 287.362 356.806 288.283 356.628C289.205 356.449 290.152 356.639 291.074 356.814ZM314.852 191.82C302.935 193.599 292.923 204.206 291.834 216.205C290.816 227.413 287.723 238.311 285.521 249.347C278.449 284.786 280.594 321.514 274.342 357.107C276.626 352.948 277.242 348.109 277.817 343.4L292.977 219.247C293.38 215.943 293.793 212.602 294.98 209.493C298.223 200.995 306.605 195.657 314.852 191.82ZM260.668 352.618C261.318 352.824 261.983 353.095 262.416 353.621C262.848 354.147 262.957 354.997 262.484 355.487C262.127 355.857 261.568 355.923 261.056 355.969C259.381 356.117 257.706 356.264 256.031 356.412C255.127 356.492 254.193 356.569 253.331 356.284C252.47 355.998 251.693 355.251 251.668 354.344C251.625 352.807 253.522 352.035 255.056 351.935C256.948 351.811 258.862 352.044 260.668 352.618ZM295.943 224.09C294.556 224.588 294.186 226.339 294.029 227.803L288.8 276.503C288.49 279.387 292.214 281.227 295.026 280.513C297.837 279.799 299.983 277.602 302.414 276.02C304.845 274.437 308.272 273.526 310.504 275.378C313.027 277.472 316.761 275.146 318.953 272.708C321.144 270.269 323.998 267.33 327.115 268.347C323.459 271.844 319.803 275.341 316.147 278.839C314.935 279.999 313.866 282.315 315.398 283C319.598 281.51 323.396 278.899 326.291 275.51C327.63 275.467 327.693 277.57 326.946 278.681C324.131 282.87 317.506 283.803 315.801 288.552C311.819 299.639 299.403 307.003 287.766 305.179C285.378 304.805 284.188 307.945 283.901 310.344C282.755 319.91 281.61 329.476 280.464 339.042C280.201 341.242 279.955 343.57 280.861 345.592C282.373 348.968 286.416 350.245 290.001 351.153C296.735 352.859 303.579 354.577 310.521 354.332C317.463 354.086 324.641 351.604 329.037 346.226C327.82 344.645 325.108 346.672 323.335 345.757C321.601 344.862 322.522 341.883 324.384 341.298C326.246 340.712 328.212 341.643 329.941 342.548C331.028 340.428 332.145 338.16 331.921 335.788C331.698 333.417 329.521 331.072 327.2 331.605C325.674 331.956 325.053 329.312 326.283 328.344C327.513 327.376 329.279 327.689 330.802 328.051C330.887 322.329 330.971 316.606 331.056 310.883C331.073 309.715 331.077 308.489 330.523 307.461C329.97 306.432 328.657 305.712 327.605 306.219C326.171 306.91 324.927 304.468 325.887 303.198C326.846 301.928 328.658 301.763 330.249 301.708C330.372 296.625 330.044 291.532 329.269 286.507C323.279 289.509 322.231 297.429 321.627 304.101C320.468 316.898 318.137 329.589 314.673 341.962C313.897 344.734 313.023 347.569 311.21 349.804C309.396 352.039 306.407 353.557 303.622 352.831C304.247 350.798 306.374 349.706 307.932 348.259C310.736 345.653 311.778 341.713 312.692 337.996C315.853 325.151 319.033 312.149 318.993 298.921L318.988 298.034C318.967 295.515 318.94 292.961 319.771 290.595C320.699 287.951 323.024 285.559 325.826 285.546C328.781 285.531 329.487 281.432 329.223 278.489C328.312 268.34 327.401 258.192 326.49 248.043C326.199 244.802 325.902 241.53 324.919 238.428C321.282 226.958 307.267 220.023 295.943 224.09ZM340.534 347.863C341.923 348.236 343.271 349.665 342.694 350.982C342.142 352.24 340.412 352.309 339.044 352.18C338.375 352.116 337.663 352.036 337.14 351.613C336.224 350.873 336.354 349.302 337.212 348.495C338.069 347.688 339.397 347.558 340.534 347.863ZM173.624 346.457C174.538 346.655 175.49 346.921 176.147 347.586C176.803 348.251 177.021 349.437 176.368 350.106C175.835 350.653 174.974 350.663 174.21 350.636C173.113 350.598 172.015 350.559 170.918 350.52C170.282 350.498 169.602 350.461 169.092 350.082C168.001 349.271 168.48 347.371 169.651 346.681C170.822 345.991 172.296 346.169 173.624 346.457ZM89.0478 336.498C95.1927 339.356 101.944 340.602 108.62 341.765C122.135 344.12 135.691 346.24 149.279 348.126C151.18 348.39 153.286 348.763 154.445 350.294C149.183 350.654 143.924 349.777 138.722 348.904C121.576 346.024 104.429 343.145 87.2826 340.266C85.4853 339.964 83.1647 338.966 83.5147 337.177C83.9297 335.057 87.0889 335.588 89.0478 336.498ZM195.743 275.765C195.146 278.16 195.26 280.666 195.342 283.133C195.85 298.533 194.937 313.98 192.615 329.213C192.062 332.844 194.232 336.475 197.214 338.62C200.196 340.764 203.87 341.685 207.477 342.38C215.608 343.946 223.916 344.589 232.192 344.29C235.339 344.177 238.616 343.887 241.307 342.252C243.855 340.704 245.583 338.127 247.104 335.563C253.557 324.682 257.788 312.49 259.464 299.951C236.252 299.846 213.178 291.088 195.743 275.765ZM256.453 336.824C258.037 337.347 259.622 337.87 261.207 338.393C261.735 338.567 262.302 338.769 262.615 339.229C263.145 340.006 262.631 341.143 261.811 341.604C260.991 342.065 259.996 342.041 259.057 342.003C257.346 341.935 255.456 341.791 254.262 340.564C253.067 339.337 253.477 336.69 255.185 336.579C255.618 336.551 256.041 336.688 256.453 336.824ZM339.526 337.053C340.469 337.204 341.463 337.378 342.19 337.997C342.916 338.616 343.214 339.842 342.545 340.523C342.275 340.797 341.901 340.938 341.538 341.065C340.135 341.553 338.577 341.943 337.19 341.411C335.802 340.879 334.856 339.045 335.729 337.843C336.53 336.738 338.178 336.838 339.526 337.053ZM93.1326 285.783C92.1561 286.246 91.1109 286.774 90.6284 287.741C90.2687 288.462 90.2875 289.305 90.3143 290.111C90.6793 301.083 91.1396 312.447 96.0466 322.268C97.3717 324.92 99.0574 327.472 101.444 329.231C102.89 330.297 104.544 331.036 106.185 331.767C109.032 333.035 111.886 334.302 114.842 335.292C121.612 337.56 128.779 338.328 135.879 339.082C138.89 339.402 142.097 339.689 144.798 338.321C147.977 336.71 149.672 333.22 151.039 329.928C158.666 311.573 163.02 291.863 163.836 272.003C163.952 269.18 160.339 267.935 157.521 267.745C135.023 266.236 113.508 276.125 93.1326 285.783ZM167.329 271.206C166.752 271.965 166.68 272.981 166.623 273.933C165.277 296.393 159.687 318.592 150.235 339.01C159.24 334.453 165.95 325.603 167.906 315.702C168.579 312.298 168.717 308.814 168.852 305.347C169.28 294.414 169.708 283.481 170.136 272.548C170.159 271.972 170.163 271.338 169.796 270.893C169.19 270.156 167.907 270.447 167.329 271.206ZM171.059 325.911C172.202 325.973 173.276 326.448 174.386 326.724C175.381 326.972 175.681 328.388 175.126 329.25C174.571 330.111 173.5 330.486 172.485 330.628C171.425 330.777 170.286 330.721 169.375 330.16C168.464 329.599 167.872 328.428 168.236 327.422C168.625 326.346 169.916 325.849 171.059 325.911ZM340.181 322.942C341.25 323.163 342.166 323.825 343.046 324.47C343.523 324.82 344.031 325.214 344.187 325.785C344.387 326.514 343.906 327.299 343.243 327.662C342.58 328.026 341.786 328.051 341.032 327.991C339.962 327.906 338.856 327.64 338.048 326.933C337.24 326.225 336.829 324.983 337.333 324.034C337.844 323.07 339.113 322.721 340.181 322.942ZM86.0121 288.977C85.7199 289.498 85.7788 290.137 85.8462 290.73L87.4337 304.708C88.2951 312.292 89.4233 320.467 94.7248 325.959C95.6088 325.54 95.11 324.211 94.5528 323.407C90.2584 317.209 89.4313 309.329 88.7348 301.822C88.3265 297.421 87.9183 293.021 87.51 288.62C87.0995 288.186 86.3043 288.456 86.0121 288.977ZM368.714 317.608C383.28 317.968 397.845 318.327 412.41 318.687C414.64 318.742 416.876 318.798 419.081 319.128C418.621 320.721 416.527 321.021 414.869 321.005C400.263 320.868 385.608 319.963 371.08 321.482C369.838 321.612 368.498 321.74 367.42 321.109C366.342 320.478 365.859 318.748 366.85 317.988C367.364 317.594 368.067 317.592 368.714 317.608ZM328.696 314.746C329.017 314.851 329.345 314.963 329.607 315.176C330.477 315.884 330.153 317.399 329.263 318.082C328.372 318.766 327.172 318.845 326.05 318.872C324.881 318.901 323.519 318.809 322.853 317.848C322.018 316.642 323.011 314.859 324.394 314.37C325.777 313.881 327.302 314.29 328.696 314.746ZM339.345 311.803C340.704 311.95 342.026 312.426 343.166 313.179C344.037 313.755 343.863 315.2 343.07 315.88C342.278 316.559 341.146 316.655 340.103 316.617C339.048 316.579 337.946 316.419 337.093 315.797C336.239 315.176 335.731 313.975 336.188 313.024C336.71 311.938 338.148 311.674 339.345 311.803ZM192.615 278.563C191.822 289.995 191.466 301.457 191.55 312.916C191.553 313.4 191.883 314.088 192.297 313.836C193.174 304.204 193.604 294.532 193.586 284.86C193.582 282.718 193.539 280.496 192.615 278.563ZM177.045 307.889C178.294 307.984 179.397 308.71 180.415 309.441C180.729 309.665 181.052 309.905 181.227 310.249C181.59 310.961 181.155 311.878 180.473 312.294C179.79 312.711 178.946 312.743 178.147 312.706C176.331 312.621 174.048 311.633 174.251 309.826C174.391 308.581 175.795 307.795 177.045 307.889ZM342.371 300.189C343.587 300.688 344.839 301.992 344.211 303.147C343.786 303.928 342.749 304.098 341.859 304.107C340.826 304.117 339.791 304.033 338.773 303.855C337.342 303.605 337.122 301.353 338.234 300.416C339.345 299.48 341.027 299.637 342.371 300.189ZM484.105 277.821C484.606 278.66 484.615 279.693 484.609 280.67C484.566 287.588 484.524 294.505 484.481 301.423C484.476 302.263 484.363 303.281 483.601 303.634C482.942 303.939 482.13 303.511 481.763 302.884C481.396 302.257 481.363 301.497 481.35 300.771C481.244 294.595 481.932 288.272 480.183 282.348C479.664 280.588 479.041 278.389 480.401 277.156C481.463 276.192 483.369 276.59 484.105 277.821ZM306.257 277.02C301.013 280.273 295.498 283.619 289.343 284.062C288.223 284.142 287.719 285.48 287.498 286.581C286.504 291.533 285.955 296.574 285.861 301.624C285.855 301.933 285.858 302.264 286.036 302.516C286.32 302.917 286.899 302.934 287.389 302.908C292.191 302.657 297.058 302.155 301.518 300.358C305.978 298.56 310.035 295.303 311.852 290.852C313.669 286.4 312.795 280.722 309.084 277.665C308.286 277.008 307.136 276.474 306.257 277.02ZM266.113 296.491C267.798 296.934 269.483 297.376 271.167 297.819C271.797 297.984 272.497 298.203 272.798 298.78C273.153 299.46 272.74 300.337 272.099 300.757C271.457 301.176 270.659 301.256 269.895 301.324C268.684 301.432 267.437 301.536 266.275 301.178C265.113 300.82 264.043 299.883 263.91 298.675C263.777 297.466 264.938 296.182 266.113 296.491ZM32.4117 204.308C38.717 206.861 43.4629 212.385 46.4066 218.518C49.3502 224.651 50.6905 231.413 51.8586 238.115C53.792 249.207 55.3316 260.529 53.9219 271.7C52.5122 282.87 47.8426 294.009 39.1859 301.208C45.4917 301.545 53.0209 301.295 56.4442 295.989C57.9805 293.608 61.2871 292.554 63.918 293.607C62.264 292.177 63.5125 289.514 64.7401 287.705C69.7699 280.292 73.221 271.771 74.4543 262.898C76.8455 245.692 70.8335 228.254 61.9128 213.349C56.1249 203.678 42.6244 199.54 32.4117 204.308ZM181.914 293.436C183.215 293.948 182.912 296.098 181.696 296.788C180.48 297.479 178.964 297.169 177.609 296.824C176.977 296.663 176.306 296.475 175.877 295.984C174.876 294.838 176.025 292.9 177.509 292.558C178.992 292.216 180.498 292.878 181.914 293.436ZM228.69 210.641C223.123 210.74 217.279 211.418 212.735 214.635C211.232 215.699 209.867 217.091 209.318 218.849C208.769 220.607 209.231 222.766 210.755 223.799C214.609 226.408 216.18 231.291 216.902 235.888C217.624 240.486 217.798 245.3 219.893 249.456C220.973 251.599 222.522 253.469 224.147 255.236C232.956 264.813 244.446 271.899 256.96 275.47C259.16 276.098 261.959 277.457 261.494 279.697C243.491 275.921 227.074 265.057 216.562 249.962C213.368 259.772 207.067 268.545 198.791 274.706C214.934 288.444 235.825 296.493 257.014 297.138C257.973 297.167 259.059 297.131 259.707 296.422C260.131 295.957 260.264 295.304 260.379 294.686C263.378 278.559 265.491 262.267 266.707 245.909C267.123 240.312 267.427 234.623 266.218 229.143C265.008 223.664 262.089 218.337 257.317 215.383C254.377 213.564 250.935 212.747 247.531 212.14C241.319 211.031 235 210.529 228.69 210.641ZM339.308 289.127C340.768 289.128 342.609 289.554 342.865 290.991C343.121 292.423 341.489 293.49 340.046 293.674C338.99 293.809 337.843 293.681 337.006 293.024C336.168 292.368 335.779 291.081 336.361 290.19C336.957 289.276 338.217 289.126 339.308 289.127ZM447.162 260.368C444.482 270.747 442.919 281.376 441.36 291.981C441.282 292.509 441.237 293.133 441.636 293.487C445.812 288.299 449.643 282.832 453.096 277.137C453.436 276.575 453.771 275.839 453.389 275.305C452.524 274.095 451.659 272.886 450.794 271.676C450.152 270.779 449.49 269.596 450.055 268.648C450.514 267.877 451.541 267.714 452.435 267.632L459.772 266.956C459.693 266.502 459.416 266.11 459.147 265.735C457.182 263.001 455.04 260.126 451.894 258.927C450.151 258.263 447.628 258.562 447.162 260.368ZM107.342 153.002C101.979 153.902 96.169 155.453 93.0563 159.913C91.3143 162.409 90.6734 165.492 90.1616 168.492C88.1486 180.295 87.5198 192.334 88.2925 204.282C111.415 193.524 138.47 191.48 162.946 198.643C165.022 199.25 167.591 201.091 166.501 202.96C148.141 196.168 127.69 195.156 108.748 200.099C102.619 201.699 96.6623 203.899 90.568 205.627C81.5112 208.195 72.1571 209.713 62.753 210.142C79.8803 233.396 82.0967 266.695 68.2024 292.014C76.8471 290.378 84.9699 286.746 92.9407 283.021C104.841 277.459 116.691 271.595 129.333 268.025C141.974 264.454 155.642 263.287 168.182 267.201C169.649 267.659 170.457 265.542 170.515 264.006L173.233 192.815C173.645 182.031 173.679 170.106 166.619 161.943C160.371 154.721 150.182 152.462 140.667 151.649C129.561 150.701 118.335 151.157 107.342 153.002ZM273.003 285.136C273.354 285.365 273.716 285.654 273.798 286.065C273.965 286.899 272.95 287.431 272.131 287.663C270.942 288 269.717 288.337 268.489 288.208C267.26 288.079 266.009 287.373 265.605 286.205C265.202 285.038 266.013 283.505 267.249 283.482C269.274 283.445 271.306 284.029 273.003 285.136ZM447.413 240.339C442.941 242.847 437.597 243.763 432.544 242.889C433.19 244.691 436.024 245.32 436.038 247.234C436.047 248.4 434.948 249.221 434.324 250.205C433.843 250.963 433.635 251.857 433.444 252.734C431.644 260.977 430.61 269.388 430.361 277.822C430.318 279.275 430.679 281.194 432.125 281.353C435.118 281.681 437.938 283.359 439.653 285.835C441.058 276.992 442.463 268.149 443.868 259.306C444.194 257.254 444.469 254.962 443.267 253.267C441.612 250.936 443.052 247.743 444.503 245.28L447.413 240.339ZM181.093 278.561C182.619 278.866 184.356 280.184 183.778 281.629C183.421 282.52 182.346 282.88 181.388 282.931C180.43 282.982 179.433 282.84 178.536 283.18C177.481 283.58 176.238 282.645 176.109 281.524C175.98 280.402 176.76 279.313 177.776 278.821C178.791 278.328 179.985 278.34 181.093 278.561ZM339.289 277.195C340.252 277.328 341.267 277.54 341.967 278.213C342.668 278.887 342.861 280.168 342.115 280.791C341.869 280.997 341.557 281.106 341.254 281.21C339.932 281.661 338.517 282.103 337.16 281.768C335.804 281.433 334.625 279.994 335.094 278.678C335.635 277.16 337.694 276.975 339.289 277.195ZM426.899 259.016C425.88 259.262 425.137 260.112 424.465 260.917L420.418 265.763C419.627 266.71 421.019 268.031 422.248 268.134C423.478 268.237 424.914 267.947 425.789 268.817C426.706 269.729 426.328 271.318 425.578 272.371C424.827 273.423 423.762 274.283 423.308 275.494C422.63 277.303 423.753 279.571 425.603 280.129C426.608 280.431 428.019 279.966 428.027 278.916C428.079 272.78 428.438 266.648 429.101 260.548C429.215 259.506 427.918 258.77 426.899 259.016ZM221.535 262.063C222.31 262.578 222.812 263.403 223.329 264.177C227.769 270.825 235.196 275.395 243.132 276.361C244.968 276.585 247.134 276.808 248.054 278.412C246.325 280.124 243.507 279.915 241.137 279.364C232.734 277.409 225.035 272.555 219.649 265.816C218.79 264.741 218.005 263.106 218.964 262.118C219.612 261.45 220.76 261.548 221.535 262.063ZM422.535 232.684C416.601 234.142 410.675 236.199 405.866 239.969C401.057 243.738 397.48 249.465 397.518 255.575C397.566 263.324 393.758 271.003 387.561 275.656L397.995 276.884C399.216 277.027 400.586 277.131 401.542 276.358C402.941 275.227 402.583 273.055 402.23 271.291C401.876 269.526 401.955 267.195 403.633 266.546C405.717 265.74 407.441 268.631 407.126 270.844C406.811 273.056 405.527 275.185 405.929 277.383C410.87 278.083 415.826 278.674 420.794 279.154C419.805 278.343 419.698 276.806 420.197 275.629C420.697 274.452 421.668 273.552 422.612 272.689C423.617 271.77 422.168 270.15 420.814 270.005C419.46 269.859 417.867 270.184 416.912 269.213C415.725 268.005 416.615 265.98 417.628 264.622C419.593 261.988 422.029 258.812 420.764 255.779C417.68 248.381 418.359 239.524 422.535 232.684ZM194.975 212.471C194.148 232.722 194.261 253.011 195.314 273.251C203.05 269.053 208.702 261.668 212.207 253.595C214.346 248.669 215.777 243.241 214.922 237.94C214.285 233.987 212.413 230.335 210.237 226.974C206.377 221.011 201.338 215.629 194.975 212.471ZM374.348 202.769C377.126 202.257 379.25 205.686 378.776 208.471C378.303 211.256 376.279 213.47 374.67 215.792C372.447 219.001 370.927 222.633 369.424 226.235C365.846 234.804 364.453 244.276 365.413 253.512C365.978 258.95 367.468 264.536 371.146 268.582C374.823 272.628 381.125 274.652 385.971 272.119C390.132 269.944 392.208 265.149 393.163 260.551C394.117 255.953 394.287 251.14 396.09 246.805C399.416 238.806 407.619 233.974 415.734 230.94C403.536 229.283 392.499 220.784 387.781 209.413C386.428 206.153 385.413 202.476 382.606 200.336C379.799 198.195 374.513 199.242 374.348 202.769ZM271.241 268.003C272.099 268.168 272.941 268.417 273.75 268.746C275.085 269.29 276.519 270.792 275.66 271.949C275.191 272.582 274.29 272.658 273.503 272.678C272.067 272.715 270.519 272.719 269.347 271.89C268.174 271.061 267.768 269.055 268.951 268.241C269.6 267.793 270.466 267.855 271.241 268.003ZM335.909 264.585C337.071 264.683 338.227 264.845 339.371 265.067C339.938 265.178 340.548 265.332 340.904 265.785C341.443 266.473 341.104 267.552 340.421 268.099C339.739 268.645 338.832 268.799 337.968 268.934C336.649 269.141 335.241 269.337 334.024 268.787C332.807 268.238 331.976 266.629 332.72 265.52C333.369 264.553 334.749 264.487 335.909 264.585ZM3.91755 258.338C2.93394 258.328 2.59365 259.641 2.62348 260.624C2.70923 263.45 3.28118 266.26 4.30667 268.894C4.59213 269.185 4.92358 268.578 4.8837 268.172L3.91755 258.338ZM192.93 265.613C192.316 265.946 192.082 266.828 192.451 267.421L192.466 267.443L192.452 267.458C192.436 267.477 192.418 267.501 192.4 267.529C192.153 267.902 192.499 268.496 192.946 268.464C193.248 267.545 193.242 266.528 192.93 265.613ZM180.145 261.614C181.476 261.908 182.921 263.013 182.59 264.335C182.371 265.212 181.449 265.726 180.567 265.922C179.685 266.118 178.753 266.104 177.911 266.432C176.84 266.848 175.551 265.984 175.33 264.856C175.109 263.729 175.8 262.552 176.797 261.981C177.793 261.409 179.023 261.366 180.145 261.614ZM187.848 75.0825C187.925 136.044 189.326 197.003 192.048 257.904L192.335 264.2L192.378 262.175C192.456 257.441 192.387 252.706 192.318 247.972C191.505 192.482 190.692 136.992 189.88 81.5018C189.846 79.1785 189.663 76.534 187.848 75.0825ZM275.042 252.7C275.788 252.923 276.537 253.262 277.022 253.873C277.506 254.484 277.645 255.422 277.166 256.037C276.702 256.632 275.861 256.745 275.11 256.811L271.903 257.096C271.378 257.143 270.815 257.181 270.359 256.918C269.991 256.705 269.747 256.317 269.635 255.907C269.299 254.671 270.134 253.331 271.289 252.781C272.445 252.23 273.815 252.333 275.042 252.7ZM16.6954 204.98C13.3609 208.257 11.6265 212.786 10.0239 217.177C5.55861 229.415 1.31518 242.404 3.51845 255.242C4.19971 255.367 4.52445 254.44 4.57497 253.75C5.48073 241.363 7.95585 229.093 11.9224 217.324C13.4359 212.834 15.2562 208.274 18.6182 204.934C18.5722 204.121 17.2765 204.409 16.6954 204.98ZM426.637 231.75C426.056 231.893 425.679 232.442 425.375 232.957C422.506 237.827 421.155 243.576 421.556 249.214C421.721 251.541 422.47 254.223 424.644 255.071C426.411 253.375 428.179 251.678 429.946 249.981C430.227 249.711 430.514 249.432 430.669 249.075C431.057 248.182 430.503 247.186 429.993 246.357C427.475 242.258 425.583 237.064 427.681 232.735C427.942 232.196 427.219 231.607 426.637 231.75ZM463.362 226.496C463.08 226.644 462.862 226.887 462.651 227.125C457.434 233.026 452.395 239.084 447.544 245.289C446.531 246.585 445.474 248.047 445.573 249.689C445.662 251.148 446.688 252.42 447.933 253.188C449.177 253.956 450.627 254.305 452.05 254.644C452.43 254.735 452.844 254.823 453.201 254.665C453.531 254.519 453.74 254.196 453.93 253.89C456.9 249.101 459.911 244.217 461.314 238.759C461.614 237.595 462.623 236.783 463.429 235.892C465.014 234.142 465.942 231.811 465.995 229.451C466.013 228.652 465.919 227.809 465.457 227.157C464.995 226.504 464.071 226.127 463.362 226.496ZM336.295 249.854C337.014 250.032 337.806 250.305 338.129 250.972C338.697 252.147 337.364 253.372 336.117 253.757C335.15 254.056 334.073 254.16 333.146 253.755C332.218 253.35 331.515 252.327 331.725 251.337C332.099 249.581 334.552 249.422 336.295 249.854ZM181.335 247.289C181.675 247.593 181.989 247.95 182.118 248.387C182.377 249.267 181.763 250.236 180.92 250.598C180.078 250.96 179.094 250.82 178.245 250.474C177.351 250.109 176.48 249.412 176.367 248.454C176.237 247.357 177.23 246.348 178.323 246.19C179.415 246.031 180.513 246.552 181.335 247.289ZM278.03 237.649C278.901 238.005 278.992 239.324 278.391 240.048C277.79 240.772 276.787 241.013 275.849 241.093C274.911 241.172 273.94 241.137 273.064 241.48C271.717 242.008 270.252 240.38 270.572 238.97C270.893 237.559 272.408 236.683 273.853 236.616C275.298 236.548 276.69 237.104 278.03 237.649ZM334.801 235.528C336.037 235.589 337.259 235.913 338.362 236.474C338.841 236.717 339.336 237.053 339.472 237.572C339.753 238.642 338.411 239.376 337.325 239.585C336.362 239.77 335.386 239.88 334.406 239.914C333.197 239.956 331.739 239.722 331.257 238.613C330.883 237.751 331.338 236.694 332.104 236.149C332.87 235.604 333.862 235.482 334.801 235.528ZM414.494 156.576C407.282 157.74 400.038 158.704 392.773 159.468C387.511 160.022 382.554 163.007 379.604 167.401C378.998 168.303 378.581 169.743 379.517 170.297C382.165 167.242 385.76 165.019 389.676 164.015C391.075 163.656 392.608 163.46 393.928 164.048C395.247 164.636 396.191 166.255 395.594 167.571C394.677 169.591 391.751 169.026 389.536 168.891C383.377 168.516 378.05 175.565 380.094 181.387C381.527 175.829 389.463 173.416 393.911 177.045C398.359 180.673 397.815 188.643 393.058 191.855C391.486 192.917 389.467 193.657 388.75 195.413C388.135 196.919 388.727 198.619 389.317 200.134C390.243 202.513 391.169 204.891 392.095 207.27C394.036 212.257 396.099 217.426 400.029 221.058C403.051 223.851 406.97 225.513 410.968 226.487C425.383 230.001 441.61 224.409 450.801 212.763C451.538 211.829 453.218 212.715 453.35 213.896C453.481 215.078 452.673 216.141 451.874 217.021C447.759 221.551 442.571 225.1 436.859 227.295C434.158 228.333 430.949 229.455 430.119 232.226C429.431 234.521 430.878 237.057 432.954 238.251C435.031 239.446 437.563 239.547 439.944 239.286C444.693 238.767 449.289 236.908 453.063 233.979C454.208 233.091 455.315 232.054 455.824 230.698C456.305 229.414 456.196 227.994 456.079 226.627L455.978 225.452C455.532 220.357 454.955 215.202 452.878 210.543C451.879 208.302 450.542 206.202 449.806 203.861C448.899 200.974 448.954 197.877 448.344 194.912C447.734 191.948 446.191 188.869 443.368 187.777C444.114 185.883 445.974 184.691 447.178 183.05C448.382 181.409 448.559 178.543 446.664 177.802C445.757 177.447 444.725 177.753 443.861 178.202C440.22 180.093 438.256 184.72 439.424 188.652C440.187 191.219 436.132 192.941 433.949 191.391C431.766 189.84 431.228 186.888 430.798 184.246C429.129 174.002 425.78 162.958 417.031 157.374C416.266 156.886 415.39 156.432 414.494 156.576ZM180.571 229.242C181.721 229.615 182.868 230.648 182.628 231.833C182.402 232.954 181.113 233.478 179.986 233.671C178.387 233.945 176.303 233.631 175.854 232.073C175.426 230.59 176.978 229.17 178.513 229.007C179.204 228.934 179.909 229.027 180.571 229.242ZM365.039 207.904C363.967 208.921 363.444 210.372 362.957 211.767C361.858 214.913 360.744 218.152 360.87 221.483C360.952 223.627 359.708 225.558 358.82 227.512C357.932 229.465 357.45 231.967 358.842 233.6C362.167 230.804 362.965 226.099 363.696 221.817C364.57 216.698 365.758 211.392 369.069 207.391C367.91 206.474 366.111 206.888 365.039 207.904ZM277.433 222.171C278.289 222.446 279.258 222.996 279.268 223.895C279.281 224.988 277.935 225.491 276.859 225.688C276.32 225.786 275.781 225.885 275.242 225.984C273.868 226.235 272.396 226.476 271.118 225.911C269.841 225.345 268.991 223.621 269.825 222.5C270.364 221.776 271.356 221.578 272.257 221.522C274.003 221.414 275.768 221.636 277.433 222.171ZM152.495 206.381C153.998 207.1 155.68 208.517 155.123 210.087C139.635 206.711 123.089 208.381 108.589 214.784C102.064 217.666 95.939 221.475 89.1861 223.772C86.8759 224.558 84.3537 225.161 82.0199 224.448C79.686 223.736 77.7396 221.26 78.4223 218.917C79.0631 216.718 81.5119 215.672 83.6816 214.938C94.3752 211.318 105.255 208.248 116.263 205.744C128.275 203.011 141.382 201.066 152.495 206.381ZM374.879 206.195C373.773 206.191 372.843 207.002 372.116 207.836C370.352 209.856 369.098 212.281 368.166 214.796C367.007 217.92 366.322 221.22 366.141 224.548C369.343 219.039 372.767 213.658 376.402 208.424C377.032 207.516 375.985 206.2 374.879 206.195ZM355.254 216.01C354.951 216.012 354.631 216.023 354.375 216.185C353.798 216.551 353.879 217.405 354.05 218.066C354.592 220.163 355.343 222.206 356.288 224.154C356.855 221.408 357.766 218.733 358.993 216.212C357.752 216.07 356.503 216.002 355.254 216.01ZM112.564 208.931C103.397 211.748 94.2295 214.566 85.0621 217.383C83.967 217.72 82.6963 218.239 82.4631 219.361C83.2084 220.449 84.6281 220.91 85.945 220.846C87.2619 220.783 88.5119 220.277 89.7324 219.778C99.0329 215.978 108.333 212.178 117.634 208.378C115.973 207.914 114.213 208.424 112.564 208.931ZM209.305 214.073C208.812 214.927 207.787 215.29 207.019 215.908C206.251 216.526 205.8 217.856 206.611 218.417C207.853 217.174 209.095 215.93 210.337 214.687C210.08 214.369 209.707 214.147 209.305 214.073ZM306.03 213.412C312.694 214.106 319.418 214.46 326.093 213.885C327.819 213.736 329.885 213.667 330.91 215.065C329.616 216.382 327.582 216.541 325.737 216.62C318.809 216.917 311.881 217.214 304.952 217.51C303.601 217.568 301.889 217.396 301.45 216.117C301.105 215.109 301.889 213.998 302.875 213.593C303.86 213.189 304.971 213.301 306.03 213.412ZM409.051 206.131C410.664 208.092 411.252 210.851 410.581 213.3C410.415 213.904 410.173 214.497 409.787 214.99C408.773 216.284 406.902 216.666 405.303 216.283C403.705 215.9 402.335 214.883 401.116 213.781C399.859 212.645 398.679 211.352 398.075 209.769C397.472 208.186 397.542 206.26 398.613 204.947C399.495 203.865 400.921 203.346 402.313 203.244C404.846 203.058 407.439 204.17 409.051 206.131ZM184.415 210.69C185.052 211.205 184.945 212.273 184.401 212.885C183.858 213.497 183.029 213.758 182.235 213.956C181.297 214.19 180.31 214.373 179.37 214.15C178.43 213.926 177.548 213.197 177.432 212.237C177.265 210.845 178.722 209.756 180.107 209.537C181.619 209.299 183.224 209.728 184.415 210.69ZM401.673 206.593C400.967 207.507 401.431 209.156 402.575 209.312C403.897 209.493 404.926 210.881 404.713 212.199C404.545 213.232 405.806 214.096 406.807 213.786C407.807 213.476 408.386 212.354 408.364 211.307C408.341 210.26 407.842 209.284 407.275 208.403C406.65 207.432 405.886 206.489 404.833 206.016C403.779 205.543 402.379 205.679 401.673 206.593ZM398.153 112.719C388.547 114.479 379.03 118.675 372.834 126.224C366.638 133.773 364.495 145.072 369.339 153.552C371.051 156.549 373.664 159.162 376.95 160.217C380.237 161.272 384.211 160.496 386.403 157.83C388.89 154.807 393.911 157.707 397.654 156.559C402.831 154.972 408.212 154.051 413.623 153.826C414.906 153.772 416.228 153.764 417.426 154.229C418.725 154.733 419.752 155.743 420.74 156.726C424.164 160.139 427.659 163.649 429.687 168.038C432.902 174.998 432.106 183.484 436.168 189.986C436.643 185.908 437.117 181.831 437.592 177.754C437.768 176.241 437.964 174.67 438.782 173.385C439.6 172.1 441.235 171.198 442.666 171.718C445.192 172.635 447.821 173.62 449.634 175.604C451.446 177.587 452.117 180.893 450.374 182.939C448.691 184.915 450.601 187.772 451.495 190.209C453.044 194.432 451.223 199.258 452.44 203.589C453.449 207.176 456.363 209.854 459.147 212.331C459.962 213.055 460.911 213.827 461.996 213.728C462.905 213.645 463.635 212.968 464.255 212.299C467.956 208.311 470.49 203.254 471.47 197.902C471.865 195.743 471.114 192.597 468.939 192.892C469.534 187.712 474.296 184.183 477.092 179.782C480.109 175.035 480.821 169.199 480.959 163.577C481.098 157.926 480.546 151.785 476.78 147.57C472.257 142.505 463.466 142.127 458.523 146.784C457.291 147.945 455.668 149.479 454.198 148.639C455.35 146.572 456.502 144.506 457.654 142.439C459.531 139.072 461.448 135.582 461.83 131.745C462.583 124.175 456.82 117.008 449.694 114.346C442.567 111.684 434.522 112.787 427.374 115.391C425.582 116.043 423.465 117.445 423.951 119.289C424.233 120.357 425.315 121.001 425.869 121.956C426.215 122.551 426.181 122.742 425.789 123.223C425.553 123.514 425.127 124.357 424.745 124.192C420.693 119.499 416.309 114.585 410.368 112.81C406.429 111.633 402.197 111.979 398.153 112.719ZM352.126 209.52C351.62 209.219 350.65 209.022 350.745 209.603C351.018 211.025 352.298 212.083 353.68 212.517C355.061 212.952 356.543 212.879 357.989 212.801C358.554 212.771 359.158 212.727 359.608 212.383C359.985 212.095 360.192 211.642 360.384 211.208C360.713 210.464 361.042 209.72 361.371 208.977C358.684 207.228 354.884 211.154 352.126 209.52ZM274.534 204.663C275.664 204.748 276.786 204.945 277.878 205.251C278.823 205.516 279.909 206.07 279.956 207.05C280.018 208.342 278.338 208.869 277.05 208.98C275.74 209.094 274.429 209.207 273.118 209.32C272.163 209.402 271.083 209.445 270.381 208.792C269.438 207.916 269.819 206.216 270.84 205.432C271.861 204.648 273.251 204.567 274.534 204.663ZM305.186 204.383C311.455 205.222 317.809 205.424 324.118 204.985C324.859 204.934 325.665 204.891 326.274 205.314C326.884 205.737 327.035 206.828 326.37 207.156C326.168 207.256 325.936 207.266 325.711 207.275C318.083 207.563 310.456 207.85 302.828 208.138C302.132 208.165 301.367 208.168 300.832 207.723C299.874 206.926 300.424 205.221 301.522 204.632C302.62 204.043 303.951 204.217 305.186 204.383ZM366.051 198.17C363.616 198.301 361.138 198.527 358.89 199.471C356.641 200.416 354.624 202.192 353.952 204.537C353.816 205.013 353.765 205.599 354.13 205.933C354.415 206.193 354.843 206.197 355.228 206.182C359.273 206.023 363.301 205.42 367.216 204.389C369.162 203.876 371.508 202.639 371.245 200.643C371.107 199.593 370.2 198.771 369.199 198.424C368.198 198.076 367.11 198.113 366.051 198.17ZM85.1055 197.876C84.7172 199.931 84.6223 202.042 84.8245 204.123C85.3276 204.666 85.9897 203.606 85.9472 202.867C85.8501 201.179 85.5673 199.502 85.1055 197.876ZM215.365 195.363C229.388 195.996 243.41 196.63 257.433 197.264C258.741 197.323 260.48 197.824 260.403 199.132C258.729 200.207 256.57 199.984 254.595 199.754C242.095 198.298 229.45 198.097 216.91 199.155C215.827 199.246 214.678 199.334 213.712 198.838C212.745 198.341 212.122 197.017 212.75 196.13C213.298 195.354 214.416 195.32 215.365 195.363ZM181.363 193.892C181.98 193.985 182.623 194.146 183.071 194.581C184.096 195.573 183.463 197.46 182.231 198.18C180.998 198.899 179.472 198.798 178.051 198.675C176.491 198.54 175.985 196.2 177.009 195.017C178.034 193.833 179.815 193.658 181.363 193.892ZM230.681 188.705C253.535 189.891 276.388 191.076 299.241 192.262C300.465 192.325 302.085 192.796 302.02 194.02C298.252 194.699 294.349 194.624 290.61 193.8L293.93 196.657C292.347 197.655 290.661 198.685 288.79 198.727C286.919 198.768 284.882 197.389 284.935 195.518C285.882 195.082 286.829 194.645 287.775 194.208C269.314 192.626 250.767 192.049 232.243 192.48C231.174 192.505 230.034 192.514 229.131 191.941C228.228 191.368 227.771 189.975 228.519 189.21C229.053 188.663 229.918 188.666 230.681 188.705ZM378.659 191.761C377.835 191.806 377.136 192.353 376.498 192.876C375.741 193.495 374.985 194.114 374.228 194.733C373.436 195.381 372.577 196.155 372.531 197.178C372.505 197.734 372.928 198.393 373.469 198.268C373.621 198.233 373.752 198.141 373.879 198.052C375.681 196.781 377.483 195.51 379.286 194.238C379.654 193.979 380.046 193.686 380.165 193.252C380.384 192.456 379.482 191.716 378.659 191.761ZM406.692 185.103C406.764 186.956 405.843 188.694 405.516 190.52C405.189 192.346 405.812 194.671 407.618 195.098C408.15 195.224 408.304 195.987 408.004 196.444C407.703 196.901 407.135 197.098 406.597 197.196C404.924 197.5 402.944 196.963 402.175 195.447C401.79 194.688 401.76 193.805 401.739 192.954C401.68 190.676 401.622 188.398 401.563 186.121C401.523 184.564 401.697 182.646 403.123 182.017C404.82 181.269 406.62 183.249 406.692 185.103ZM381.833 195.435C381.504 195.589 381.279 195.945 381.283 196.309L381.201 196.33C381.384 196.736 382.042 196.799 382.299 196.436C382.556 196.072 382.277 195.473 381.833 195.435ZM378.68 183.531C377.924 183.55 377.079 183.687 376.632 184.297C376.154 184.95 376.347 185.907 376.838 186.549C377.329 187.192 378.053 187.605 378.728 188.051C381.571 189.926 383.842 192.659 385.165 195.797C386.065 194.613 386.964 193.429 387.864 192.244C388.536 191.36 389.245 190.348 389.103 189.246C389.001 188.45 388.466 187.781 387.899 187.213C385.494 184.808 382.081 183.444 378.68 183.531ZM88.8393 165.206C87.7823 165.293 87.2346 166.48 86.9023 167.487C86.396 169.021 85.8897 170.556 85.3835 172.09C84.8303 173.766 84.2733 175.461 84.1216 177.22C84.021 178.386 84.1006 179.558 84.1802 180.726C84.4289 184.37 84.6776 188.015 84.9262 191.66C84.9743 192.365 85.5105 193.338 86.0932 192.939C85.8513 183.629 86.7761 174.289 88.8393 165.206ZM387.778 178.609C386.818 178.974 385.799 179.617 385.66 180.634C385.521 181.651 387.019 182.595 387.6 181.749C388.341 180.668 390.194 181.232 390.807 182.391C391.42 183.549 391.24 184.941 391.231 186.252C391.222 187.562 391.523 189.065 392.665 189.707C392.857 187.954 393.048 186.201 393.24 184.449C393.476 182.285 393.462 179.602 391.561 178.543C390.422 177.909 388.995 178.145 387.778 178.609ZM418.585 177.619C420.142 177.688 421.805 178.231 422.656 179.537C423.508 180.842 423.056 182.98 421.555 183.401C419.414 184.001 417.411 180.983 415.317 181.732C414.008 182.201 413.199 184.042 411.834 183.778C410.987 183.614 410.518 182.6 410.687 181.754C410.855 180.908 411.486 180.231 412.162 179.696C413.964 178.268 416.289 177.517 418.585 177.619ZM180.129 176.077C181.63 176.32 183.1 177.963 182.309 179.262C182.086 179.626 181.725 179.885 181.347 180.084C180.411 180.577 179.257 180.744 178.29 180.315C177.323 179.885 176.643 178.77 176.905 177.745C177.234 176.457 178.817 175.865 180.129 176.077ZM421.026 167.531C422.059 168.513 422.864 170.363 421.708 171.197C420.484 172.078 419.019 170.59 417.848 169.639C416.54 168.577 414.768 168.108 413.106 168.385C412.043 168.562 411.042 169.023 409.975 169.178C408.909 169.333 407.668 169.088 407.086 168.181C406.476 167.23 406.864 165.883 407.704 165.126C408.543 164.37 409.71 164.093 410.836 163.99C414.527 163.652 418.339 164.977 421.026 167.531ZM180.077 164.521C180.999 165.061 181.496 166.335 180.983 167.273C180.305 168.511 178.528 168.494 177.158 168.154C176.664 168.031 176.145 167.87 175.819 167.48C175.039 166.55 175.913 165.091 177.001 164.554C177.96 164.081 179.156 163.98 180.077 164.521Z" fill="#00160A"/>
<path fill-rule="evenodd" clip-rule="evenodd" d="M56.3611 289.074C56.4871 289.424 56.6035 289.815 56.4594 290.158C56.201 290.773 55.3597 290.797 54.6928 290.791C50.0023 290.754 45.6415 294.783 45.3084 299.462C45.2732 299.956 44.5938 300.182 44.1543 299.953C43.7148 299.724 43.4886 299.23 43.3366 298.758C42.4796 296.099 43.0318 293.119 44.3979 290.682C45.764 288.246 47.878 286.302 50.1744 284.711C51.0653 284.094 52.1746 283.502 53.1825 283.9C53.8484 284.163 54.2835 284.799 54.6461 285.416C55.3291 286.579 55.904 287.805 56.3611 289.074ZM53.6367 288.542C53.2238 287.279 51.5483 286.826 50.2967 287.272C49.0451 287.718 48.1325 288.782 47.2808 289.802C46.4734 290.769 45.6286 291.824 45.5335 293.08C47.6918 290.794 50.5598 289.188 53.6367 288.542Z" fill="#FFB61D"/>
</svg>
