<svg width="21" height="21" viewBox="0 0 21 21" fill="none" xmlns="http://www.w3.org/2000/svg">
<path d="M8.19875 4.82125C8.04071 5.38812 7.96122 5.97401 7.9625 6.5625C7.9625 10.1325 10.8675 13.0375 14.4375 13.0375C15.0325 13.0375 15.6188 12.9587 16.1788 12.8013C15.7191 13.9306 14.9335 14.8975 13.9221 15.5785C12.9107 16.2595 11.7193 16.6239 10.5 16.625C7.1225 16.625 4.375 13.8775 4.375 10.5C4.375 7.93625 5.95875 5.73125 8.19875 4.82125ZM10.5 2.625C8.94248 2.625 7.41993 3.08686 6.12489 3.95218C4.82985 4.81749 3.82049 6.0474 3.22445 7.48637C2.62841 8.92534 2.47246 10.5087 2.77632 12.0363C3.08018 13.5639 3.8302 14.9671 4.93154 16.0685C6.03288 17.1698 7.43607 17.9198 8.96367 18.2237C10.4913 18.5275 12.0747 18.3716 13.5136 17.7756C14.9526 17.1795 16.1825 16.1702 17.0478 14.8751C17.9131 13.5801 18.375 12.0575 18.375 10.5C18.375 10.0975 18.34 9.695 18.2875 9.31C17.8503 9.92308 17.2726 10.4225 16.6028 10.7666C15.933 11.1106 15.1905 11.2892 14.4375 11.2875C13.4358 11.2875 12.46 10.9694 11.6508 10.379C10.8416 9.78852 10.2409 8.95633 9.93522 8.00241C9.62958 7.04848 9.63482 6.02213 9.95021 5.07137C10.2656 4.12062 10.8748 3.29462 11.69 2.7125C11.305 2.66 10.9025 2.625 10.5 2.625Z" fill="black"/>
</svg>
