<svg width="321" height="209" fill="none" xmlns="http://www.w3.org/2000/svg">
  <g filter="url(#a)">
    <path d="M10 28c0-11.046 8.954-20 20-20h261c11.046 0 20 8.954 20 20v149c0 11.046-8.954 20-20 20H30c-11.046 0-20-8.954-20-20V28Z" fill="#fff"/>
  </g>
  <g clip-path="url(#b)">
    <path fill="#fff" d="M27 21h19.667v20H27z"/>
    <path fill-rule="evenodd" clip-rule="evenodd" d="M46.635 41 36.82 21.033 27.003 41h19.632Zm-6.84-11.668 5.247 10.673H28.597l5.247-10.673h5.95Zm-5.462-.995h4.973l-2.487-5.057-2.486 5.057Z" fill="#000"/>
  </g>
  <circle cx="284" cy="31" r="9.5" stroke="#000"/>
  <path d="M27 66c0-5.523 4.477-10 10-10h247c5.523 0 10 4.477 10 10v131H27V66Z" fill="#FAFAFA"/>
  <rect x="222" y="71" width="19.077" height="10" rx="5" fill="#C4C4C4"/>
  <rect x="243.462" y="71" width="19.077" height="10" rx="5" fill="#C4C4C4"/>
  <rect x="264.923" y="71" width="19.077" height="10" rx="5" fill="#C4C4C4"/>
  <rect x="40" y="74" width="99" height="5" rx="2.5" fill="#C4C4C4"/>
  <path fill="#C4C4C4" d="M40 91h244v.5H40z"/>
  <rect x="222" y="101.5" width="19.077" height="10" rx="5" fill="#C4C4C4"/>
  <rect x="243.462" y="101.5" width="19.077" height="10" rx="5" fill="#C4C4C4"/>
  <rect x="264.923" y="101.5" width="19.077" height="10" rx="5" fill="#C4C4C4"/>
  <rect x="40" y="104.5" width="99" height="5" rx="2.5" fill="#C4C4C4"/>
  <path fill="#C4C4C4" d="M40 121.5h244v.5H40z"/>
  <rect x="222" y="132" width="19.077" height="10" rx="5" fill="#C4C4C4"/>
  <rect x="243.462" y="132" width="19.077" height="10" rx="5" fill="#C4C4C4"/>
  <rect x="264.923" y="132" width="19.077" height="10" rx="5" fill="#75E6A9"/>
  <rect x="40" y="135" width="99" height="5" rx="2.5" fill="#C4C4C4"/>
  <path fill="#C4C4C4" d="M40 152h244v.5H40z"/>
  <rect x="222" y="163" width="19.077" height="10" rx="5" fill="#C4C4C4"/>
  <rect x="243.462" y="163" width="19.077" height="10" rx="5" fill="#75E6A9"/>
  <rect x="264.923" y="163" width="19.077" height="10" rx="5" fill="#C4C4C4"/>
  <rect x="40" y="166" width="99" height="5" rx="2.5" fill="#C4C4C4"/>
  <path fill="#C4C4C4" d="M40 183h244v.5H40z"/>
  <defs>
    <clipPath id="b">
      <path fill="#fff" transform="translate(27 21)" d="M0 0h19.667v20H0z"/>
    </clipPath>
    <filter id="a" x="0" y="0" width="321" height="209" filterUnits="userSpaceOnUse" color-interpolation-filters="sRGB">
      <feFlood flood-opacity="0" result="BackgroundImageFix"/>
      <feColorMatrix in="SourceAlpha" values="0 0 0 0 0 0 0 0 0 0 0 0 0 0 0 0 0 0 127 0" result="hardAlpha"/>
      <feOffset dy="2"/>
      <feGaussianBlur stdDeviation="5"/>
      <feComposite in2="hardAlpha" operator="out"/>
      <feColorMatrix values="0 0 0 0 0 0 0 0 0 0 0 0 0 0 0 0 0 0 0.1 0"/>
      <feBlend in2="BackgroundImageFix" result="effect1_dropShadow_25_267"/>
      <feBlend in="SourceGraphic" in2="effect1_dropShadow_25_267" result="shape"/>
    </filter>
  </defs>
</svg>