<svg width="23" height="23" viewBox="0 0 23 23" fill="none" xmlns="http://www.w3.org/2000/svg">
<path d="M0 11.4949C0 11.2311 0.0913101 11.0079 0.27393 10.8253C0.463314 10.6495 0.679753 10.5615 0.923247 10.5615H3.13498C3.38524 10.5615 3.59322 10.6528 3.75893 10.8355C3.92464 11.0181 4.0075 11.2379 4.0075 11.4949C4.0075 11.7519 3.92464 11.9701 3.75893 12.1493C3.59322 12.3286 3.38524 12.4182 3.13498 12.4182H0.923247C0.672989 12.4182 0.45655 12.3269 0.27393 12.1442C0.0913101 11.9616 0 11.7452 0 11.4949ZM3.0944 18.9925C3.0944 18.7422 3.17894 18.5224 3.34804 18.333L4.94089 16.7909C5.10322 16.6218 5.31628 16.5373 5.58006 16.5373C5.83708 16.5373 6.05183 16.6184 6.22431 16.7808C6.39678 16.9431 6.48302 17.1494 6.48302 17.3996C6.48302 17.6634 6.39509 17.8934 6.21923 18.0895L4.67711 19.6317C4.23746 19.9766 3.79444 19.9766 3.34804 19.6317C3.17894 19.4491 3.0944 19.236 3.0944 18.9925ZM3.0944 4.0075C3.0944 3.75724 3.17894 3.53742 3.34804 3.34804C3.55771 3.17218 3.78768 3.08425 4.03794 3.08425C4.27467 3.08425 4.48772 3.17218 4.67711 3.34804L6.21923 4.94089C6.39509 5.10322 6.48302 5.31628 6.48302 5.58006C6.48302 5.83708 6.39678 6.05183 6.22431 6.22431C6.05183 6.39678 5.83708 6.48302 5.58006 6.48302C5.31628 6.48302 5.10322 6.39509 4.94089 6.21923L3.34804 4.67711C3.17894 4.49449 3.0944 4.27128 3.0944 4.0075ZM5.85399 11.4949C5.85399 10.4871 6.10763 9.54867 6.61491 8.67953C7.12219 7.8104 7.8104 7.12219 8.67953 6.61491C9.54867 6.10763 10.4871 5.85399 11.4949 5.85399C12.2525 5.85399 12.9796 6.00448 13.6762 6.30547C14.3729 6.60645 14.9732 7.0089 15.4771 7.51279C15.981 8.01669 16.3817 8.61697 16.6793 9.31363C16.9769 10.0103 17.1257 10.7374 17.1257 11.4949C17.1257 12.5095 16.8738 13.4496 16.3699 14.3154C15.866 15.1811 15.1811 15.866 14.3154 16.3699C13.4496 16.8738 12.5095 17.1257 11.4949 17.1257C10.4804 17.1257 9.54021 16.8738 8.67446 16.3699C7.8087 15.866 7.12219 15.1811 6.61491 14.3154C6.10763 13.4496 5.85399 12.5095 5.85399 11.4949ZM10.5717 19.9056C10.5717 19.6486 10.6613 19.4321 10.8405 19.2563C11.0198 19.0804 11.2379 18.9925 11.4949 18.9925C11.7587 18.9925 11.9785 19.0804 12.1544 19.2563C12.3302 19.4321 12.4182 19.6486 12.4182 19.9056V22.0565C12.4182 22.3202 12.3286 22.5434 12.1493 22.7261C11.9701 22.9087 11.7519 23 11.4949 23C11.2379 23 11.0198 22.9087 10.8405 22.7261C10.6613 22.5434 10.5717 22.3202 10.5717 22.0565V19.9056ZM10.5717 3.13498V0.923247C10.5717 0.672989 10.663 0.45655 10.8456 0.27393C11.0282 0.0913101 11.2447 0 11.4949 0C11.7452 0 11.9616 0.0913101 12.1442 0.27393C12.3269 0.45655 12.4182 0.672989 12.4182 0.923247V3.13498C12.4182 3.38524 12.3286 3.59322 12.1493 3.75893C11.9701 3.92464 11.7519 4.0075 11.4949 4.0075C11.2379 4.0075 11.0198 3.92464 10.8405 3.75893C10.6613 3.59322 10.5717 3.38524 10.5717 3.13498ZM10.6833 7.81209C11.6234 7.92707 12.4131 8.34304 13.0523 9.05999C13.6914 9.77694 14.011 10.619 14.011 11.5862C14.011 12.4858 13.7286 13.2789 13.1639 13.9654C12.5991 14.6519 11.8838 15.0898 11.0181 15.2792C11.2345 15.3063 11.3935 15.3198 11.4949 15.3198C12.5501 15.3198 13.4513 14.9461 14.1987 14.1987C14.9461 13.4513 15.3198 12.5501 15.3198 11.4949C15.3198 10.4533 14.9461 9.56389 14.1987 8.82664C13.4513 8.0894 12.5501 7.72078 11.4949 7.72078C11.2176 7.72078 10.9471 7.75121 10.6833 7.81209ZM16.5474 17.3996C16.5474 17.1494 16.6286 16.9465 16.7909 16.7909C16.9532 16.6218 17.1562 16.5373 17.3996 16.5373C17.6634 16.5373 17.8799 16.6218 18.049 16.7909L19.6317 18.333C19.8075 18.5224 19.8955 18.7422 19.8955 18.9925C19.8955 19.2428 19.8075 19.4558 19.6317 19.6317C19.1988 19.9699 18.7659 19.9699 18.333 19.6317L16.7909 18.0895C16.6286 17.9069 16.5474 17.677 16.5474 17.3996ZM16.5474 5.58006C16.5474 5.30951 16.6286 5.09646 16.7909 4.94089L18.333 3.34804C18.5224 3.17218 18.7355 3.08425 18.9722 3.08425C19.2292 3.08425 19.4474 3.17556 19.6266 3.35818C19.8058 3.5408 19.8955 3.75724 19.8955 4.0075C19.8955 4.27805 19.8075 4.50125 19.6317 4.67711L18.049 6.21923C17.8528 6.39509 17.6364 6.48302 17.3996 6.48302C17.1562 6.48302 16.9532 6.39678 16.7909 6.22431C16.6286 6.05183 16.5474 5.83708 16.5474 5.58006ZM18.9925 11.4949C18.9925 11.2379 19.0804 11.0147 19.2563 10.8253C19.4321 10.6495 19.6384 10.5615 19.8752 10.5615H22.0666C22.3169 10.5615 22.535 10.6545 22.721 10.8405C22.907 11.0265 23 11.2447 23 11.4949C23 11.7452 22.907 11.9616 22.721 12.1442C22.535 12.3269 22.3169 12.4182 22.0666 12.4182H19.8752C19.6249 12.4182 19.4152 12.3286 19.2461 12.1493C19.077 11.9701 18.9925 11.7519 18.9925 11.4949Z" fill="white"/>
</svg>
